<?xml version="1.0" encoding="UTF-8" standalone="no"?>
<!-- Created with Inkscape (http://www.inkscape.org/) -->

<svg
   xmlns:dc="http://purl.org/dc/elements/1.1/"
   xmlns:cc="http://creativecommons.org/ns#"
   xmlns:rdf="http://www.w3.org/1999/02/22-rdf-syntax-ns#"
   xmlns:svg="http://www.w3.org/2000/svg"
   xmlns="http://www.w3.org/2000/svg"
   xmlns:inkscape="http://www.inkscape.org/namespaces/inkscape"
   version="1.1"
   width="640"
   height="480"
   id="svg2985">
  <defs
     id="defs2987">
    <inkscape:path-effect
       effect="spiro"
       id="path-effect3004" />
  </defs>
  <metadata
     id="metadata2990">
    <rdf:RDF>
      <cc:Work
         rdf:about="">
        <dc:format>image/svg+xml</dc:format>
        <dc:type
           rdf:resource="http://purl.org/dc/dcmitype/StillImage" />
        <dc:title></dc:title>
      </cc:Work>
    </rdf:RDF>
  </metadata>
  <g
     id="layer1">
    <rect
       width="320"
       height="300"
       x="0"
       y="0"
       id="rect2995"
       style="fill:#ececec" />
  </g>
  <g
     id="layer2">
    <path
       d="m 155,10 c -9.05817,-1.0516078 -18.47998,1.424981 -25.85021,6.794906 -4.2018,3.061422 -7.72821,7.008391 -10.49627,11.408992 -4.38838,6.976547 -6.84645,14.971839 -10.49627,22.361625 -1.54307,3.124251 -3.31845,6.189466 -4.10724,9.583554 -1.04564,4.499325 -0.26726,9.245335 1.17699,13.632979 1.44425,4.387644 3.53629,8.531337 5.21205,12.835884 1.28415,3.298615 2.32419,6.692671 3.73887,9.937447 1.41468,3.244777 3.23962,6.376723 5.84468,8.773303 2.07289,1.907 4.60272,3.30178 7.30176,4.10723 2.51904,0.75174 5.15623,0.99374 7.75811,1.36908 9.78988,1.41225 19.31929,4.75722 29.20702,5.01996 7.61618,0.20238 15.52756,-1.59481 21.44891,-6.38904 4.56017,-3.69215 7.62811,-8.85605 10.95263,-13.690786 3.925,-5.707999 8.34755,-11.127614 11.40899,-17.341669 6.59852,-13.393551 6.14215,-29.745291 0,-43.354171 -2.54168,-5.631476 -6.03448,-10.885334 -10.59811,-15.050296 -4.56363,-4.164961 -10.23298,-7.2066 -16.32711,-8.224049 -3.33451,-0.556715 -6.76923,-0.513801 -10.03991,-1.369079 -1.99462,-0.5215899 -3.89901,-1.3707246 -5.91906,-1.7829897 -1.01003,-0.2061325 -2.05003,-0.3009713 -3.07418,-0.1836636 -1.02415,0.1173076 -2.03404,0.453714 -2.87212,1.0539338 -0.3679,0.2634829 -0.69902,0.5742775 -1.04998,0.8599355 -0.35096,0.285658 -0.72835,0.549678 -1.15521,0.699885 -0.42686,0.150207 -0.91121,0.177489 -1.32569,-0.0041 -0.20724,-0.0908 -0.39325,-0.232984 -0.5265,-0.415844 C 155.07891,10.450146 155,10.226259 155,10 c 0,0 0,0 0,0"
       id="path3002"
       style="fill:#f4d7d7;stroke:#000000;stroke-width:1px;stroke-linecap:butt;stroke-linejoin:miter;stroke-opacity:1" />
  </g>
</svg>
