<?xml version="1.0" encoding="UTF-8" standalone="no"?>
<!-- Created with Inkscape (http://www.inkscape.org/) -->

<svg
   xmlns:dc="http://purl.org/dc/elements/1.1/"
   xmlns:cc="http://creativecommons.org/ns#"
   xmlns:rdf="http://www.w3.org/1999/02/22-rdf-syntax-ns#"
   xmlns:svg="http://www.w3.org/2000/svg"
   xmlns="http://www.w3.org/2000/svg"
   xmlns:sodipodi="http://sodipodi.sourceforge.net/DTD/sodipodi-0.dtd"
   xmlns:inkscape="http://www.inkscape.org/namespaces/inkscape"
   width="300"
   height="300"
   id="svg2"
   version="1.1"
   inkscape:version="0.48.0 r9654"
   sodipodi:docname="Page4.svg">
  <defs
     id="defs4" />
  <sodipodi:namedview
     id="base"
     pagecolor="#ffffff"
     bordercolor="#666666"
     borderopacity="1.0"
     inkscape:pageopacity="0.0"
     inkscape:pageshadow="2"
     inkscape:zoom="1.7866667"
     inkscape:cx="82.276122"
     inkscape:cy="150"
     inkscape:document-units="px"
     inkscape:current-layer="layer14"
     showgrid="false"
     fit-margin-top="0"
     fit-margin-left="0"
     fit-margin-right="0"
     fit-margin-bottom="0"
     gridtolerance="5"
     inkscape:window-width="1153"
     inkscape:window-height="756"
     inkscape:window-x="37"
     inkscape:window-y="22"
     inkscape:window-maximized="0" />
  <metadata
     id="metadata7">
    <rdf:RDF>
      <cc:Work
         rdf:about="">
        <dc:format>image/svg+xml</dc:format>
        <dc:type
           rdf:resource="http://purl.org/dc/dcmitype/StillImage" />
        <dc:title />
      </cc:Work>
    </rdf:RDF>
  </metadata>
  <g
     inkscape:groupmode="layer"
     id="layer14"
     inkscape:label="bg">
    <path
       style="fill:#fffacd;stroke:#000000;stroke-width:1px;stroke-linecap:butt;stroke-linejoin:miter;stroke-opacity:1"
       d="M 8.3955224,15.671642 C 19.271047,-3.6273316 108.89519,9.5149254 131.52985,9.5149254 c 44.02985,0 88.0597,0 132.08955,0 3.72444,0 19.89199,-3.055778 22.38806,-0.5597015 5.02247,5.0224621 1.11941,39.4693911 1.11941,45.8955221 0,64.584324 0,128.875434 0,193.656714 0,6.87991 4.66887,32.27143 -0.55971,37.5 -7.32923,7.32924 -27.50719,1.69274 -37.5,3.35821 -64.60406,10.76735 -135.61113,1.67911 -201.492533,1.67911 -6.308265,0 -33.848454,-0.82607 -37.5,-4.47762 C 6.8075672,283.3001 7.8358209,232.9786 7.8358209,225 c 0,-29.39261 1.119403,-58.59591 1.119403,-87.87313 0,-16.11684 -2.6413917,-34.52479 0,-50.373139 C 12.38234,66.191037 12.51073,36.247682 8.3955224,15.671642 z"
       id="path6156"
       inkscape:connector-curvature="0" />
  </g>
  <g
     inkscape:groupmode="layer"
     id="layer49"
     inkscape:label="Shoes">
    <path
       style="fill:#8b4513;stroke:#000000;stroke-width:1px;stroke-linecap:butt;stroke-linejoin:miter;stroke-opacity:1"
       d="m 197.88136,247.88136 c 0.31804,10.1301 -12.70461,8.8092 -19.91526,13.13559 -0.766,0.4596 -3.43567,0.84746 -2.54237,0.84746 0.0144,0 0.36337,4.2071 1.27119,4.66101 3.40577,1.70289 32.17904,-4.61232 33.47457,-7.20339 4.41651,-8.83301 -6.83001,-8.99312 -10.59322,-9.74576"
       id="path3674"
       inkscape:connector-curvature="0" />
    <path
       style="fill:#8b4513;stroke:#000000;stroke-width:1px;stroke-linecap:butt;stroke-linejoin:miter;stroke-opacity:1"
       d="m 239.40678,250 c 13.28087,9.2307 -14.71386,23.15154 -19.49153,20.76271 -3.75552,-1.87776 8.38729,-17.50745 10.1695,-18.22034 3.11284,-1.24513 5.9551,-0.85891 9.32203,-2.54237 z"
       id="path3676"
       inkscape:connector-curvature="0" />
  </g>
  <g
     inkscape:groupmode="layer"
     id="layer47"
     inkscape:label="Legs">
    <path
       style="fill:#b8860b;stroke:#000000;stroke-width:1px;stroke-linecap:butt;stroke-linejoin:miter;stroke-opacity:1"
       d="m 194.49153,191.52542 c 3.93543,19.86651 0,40.81372 0,59.74577 0,0.42123 18.972,0.71111 19.91525,-2.11865 1.61031,-4.83092 0.84746,-13.82157 0.84746,-18.64407 0,-6.17784 1.69491,-12.9312 1.69491,-12.71186 0,11.63362 2.59208,22.80559 4.23729,34.32203 0.16104,1.1273 1.22894,2.58463 0.42373,3.38983 -0.48465,0.48465 6.91023,-0.65735 13.13559,-1.69491 1.81223,-0.30204 8.51161,0.81043 9.74577,-0.42373 2.34172,-2.34172 -0.84746,-22.26051 -0.84746,-25.84746 0,-5.76438 1.74859,-38.92937 -0.84746,-41.52542 -2.12462,-2.12463 -41.66949,1.52712 -48.30508,5.50847 z"
       id="path3666"
       inkscape:connector-curvature="0" />
  </g>
  <g
     inkscape:groupmode="layer"
     id="layer48"
     inkscape:label="Hands">
    <path
       style="fill:#ffe4e1;stroke:#000000;stroke-width:1px;stroke-linecap:butt;stroke-linejoin:miter;stroke-opacity:1"
       d="m 148.30508,161.86441 c 2.61113,-6.94267 -25.55126,1.56737 -20.76271,6.35593 1.09239,1.09239 4.11237,-0.84746 4.66102,-0.84746 0.53322,0 -4.14034,3.91051 -2.9661,5.08475 0.70913,0.70913 1.7481,-1.7481 2.54237,-2.54238 0.64312,-0.64312 1.2546,2.10206 1.69492,2.54238 0.92699,0.92699 1.46949,-1.69492 2.9661,-1.69492 1.45418,0 0.81798,4.46389 2.11864,3.81356 2.64712,-1.32356 4.43646,-5.81992 6.35593,-6.77966"
       id="path3669"
       inkscape:connector-curvature="0" />
    <path
       style="fill:#ffe4e1;stroke:#000000;stroke-width:1px;stroke-linecap:butt;stroke-linejoin:miter;stroke-opacity:1"
       d="m 265.25424,194.91525 c -0.16088,5.12801 6.30746,6.92508 4.66101,11.86441 -0.50533,1.516 -4.61015,0.32201 -3.38983,-2.11864 1.14398,-2.28796 1.44051,8.7711 -0.84745,7.62712 -1.89025,-0.94513 -2.11865,-2.48078 -2.11865,-4.23729 0,-0.66069 -2.77419,7.62712 -5.08474,7.62712 -2.55634,0 -0.3404,-11.43716 1.69491,-16.52543"
       id="path3671"
       inkscape:connector-curvature="0" />
  </g>
  <g
     inkscape:groupmode="layer"
     id="layer46"
     inkscape:label="Top">
    <path
       style="fill:#ff0000;stroke:#000000;stroke-width:1px;stroke-linecap:butt;stroke-linejoin:miter;stroke-opacity:1"
       d="m 186.44068,116.94915 c -12.31663,0.54582 -14.93133,42.79661 -17.79661,42.79661 -15.34352,0 -23.72882,-8.79432 -23.72882,9.74577 0,0.21823 -0.27162,2.69447 0,2.9661 0.60166,0.60165 4.98677,0 5.93221,0 6.69655,0 23.34267,4.95062 28.81356,0.84745 3.07296,-2.30472 6.66652,-25.48029 9.32203,-24.15254 4.71725,2.35863 -6.42314,40.85623 -5.9322,41.1017 8.8056,4.4028 59.82571,9.66581 66.52542,2.9661 0.77366,-0.77366 -2.91936,-38.13559 -1.69491,-38.13559 8.25212,0 6.606,30.91138 7.62711,36.01694 3.94251,19.71255 7.96891,2.03671 12.28814,6.35594 2.09735,2.09735 0,-5.93221 0,-8.89831 0,-6.99273 1.69492,-14.03455 1.69492,-21.18644 0,-7.00189 1.69904,-18.21207 -1.27119,-24.15254 -6.46687,-12.93374 -22.75851,-25.73814 -36.01695,-28.38983"
       id="path3663"
       inkscape:connector-curvature="0" />
  </g>
  <g
     inkscape:groupmode="layer"
     id="layer45"
     inkscape:label="Head">
    <path
       style="fill:#ffe4e1;stroke:#000000;stroke-width:1px;stroke-linecap:butt;stroke-linejoin:miter;stroke-opacity:1"
       d="M 236.44068,80.932203 C 216.22163,40.48792 176.69492,45.938452 176.69492,92.372881 c 0,8.686359 -0.47379,15.187499 4.66101,22.033899 9.07747,12.10329 37.79043,11.97866 48.30509,2.9661 5.12236,-4.39059 8.83062,-14.91583 10.16949,-21.610168 1.24356,-6.217788 -2.4134,-9.948357 -3.38983,-14.830509 z"
       id="path3660"
       inkscape:connector-curvature="0" />
  </g>
  <g
     inkscape:groupmode="layer"
     id="layer50"
     inkscape:label="Face">
    <path
       style="fill:#f5f5f5;stroke:#000000;stroke-width:1px;stroke-linecap:butt;stroke-linejoin:miter;stroke-opacity:1"
       d="m 190.67797,86.440678 c -2.75262,-6.69339 -11.12089,1.167249 -7.20339,5.084746 1.56576,1.565764 3.76087,2.701176 5.50847,2.118644 2.35446,-0.784821 1.69492,-6.976043 1.69492,-7.20339 z"
       id="path3683"
       inkscape:connector-curvature="0" />
    <path
       style="fill:#f5f5f5;stroke:#000000;stroke-width:1px;stroke-linecap:butt;stroke-linejoin:miter;stroke-opacity:1"
       d="m 204.66102,87.711864 c -2.12361,-9.427061 -11.14707,3.683446 -7.62712,7.20339 1.90042,1.900427 5.55964,2.491201 7.20339,0.847458 0.82358,-0.823581 0.84746,-4.55455 0.84746,-3.389831 0,1.56008 -0.2031,-3.116617 -0.42373,-4.661017 z"
       id="path3685"
       inkscape:connector-curvature="0" />
    <path
       style="fill:none;stroke:#000000;stroke-width:1px;stroke-linecap:butt;stroke-linejoin:miter;stroke-opacity:1"
       d="m 186.01695,108.47458 c 3.1817,8.84448 13.38265,7.80379 18.64407,2.54237"
       id="path3687"
       inkscape:connector-curvature="0" />
    <path
       style="fill:none;stroke:#000000;stroke-width:1px;stroke-linecap:butt;stroke-linejoin:miter;stroke-opacity:1"
       d="m 192.37288,92.79661 c 0.006,4.133765 -3.1107,6.500536 -5.50847,8.89831 -4.58624,4.58623 23.3984,5.41363 5.50847,-8.89831 z"
       id="path3689"
       inkscape:connector-curvature="0" />
    <path
       style="fill:none;stroke:#000000;stroke-width:1px;stroke-linecap:butt;stroke-linejoin:miter;stroke-opacity:1"
       d="m 200.84746,91.101695 0,1.694915"
       id="path3691"
       inkscape:connector-curvature="0" />
    <path
       style="fill:none;stroke:#000000;stroke-width:1px;stroke-linecap:butt;stroke-linejoin:miter;stroke-opacity:1"
       d="m 186.44068,88.983051 0.42373,-0.423729"
       id="path3693"
       inkscape:connector-curvature="0" />
  </g>
  <g
     inkscape:groupmode="layer"
     id="layer51"
     inkscape:label="Hair">
    <path
       style="fill:#a0522d;stroke:#000000;stroke-width:1px;stroke-linecap:butt;stroke-linejoin:miter;stroke-opacity:1"
       d="m 218.22034,59.322034 c -4.25388,-0.956714 -4.01866,-0.496606 -8.05085,0.847458 -5.38857,1.796189 -10.82422,-1.040189 -15.25424,3.38983 -4.75453,4.75453 -13.42099,19.491525 -18.22033,19.491525 -1.5851,0 -1.27119,-10.080018 -1.27119,-11.864406 0,-6.087401 17.71882,-22.431697 24.15254,-24.576272 7.77637,-2.592122 19.38744,3.820957 21.18644,11.01695 0.77924,3.116934 -2.54237,-0.06881 -2.54237,1.694915 0,0.794062 10.42287,-1.441534 11.86441,0 2.89817,2.898176 8.32836,11.586891 4.66101,15.254237 -5.38422,5.384222 -12.23179,-7.090706 -13.55932,-9.745763 -1.9136,-3.827207 -1.43154,-3.59027 -2.9661,-5.508474 z"
       id="path3696"
       inkscape:connector-curvature="0" />
  </g>
  <g
     inkscape:groupmode="layer"
     id="layer52"
     inkscape:label="Hoover"
     style="display:inline">
    <path
       style="fill:#d3d3d3;stroke:#000000;stroke-width:1px;stroke-linecap:butt;stroke-linejoin:miter;stroke-opacity:1"
       d="m 35.169492,95.762712 c 1.864937,2.726304 -1.393936,10.470468 0.847457,12.711868 0.718086,0.71808 10.445879,-2.83706 13.135593,2.54237 4.796707,9.59341 4.237289,41.03487 4.237289,50.42373 0.622429,0.49794 7.907536,5.79509 10.169491,1.27118 4.731169,-9.46233 -0.805485,-46.03953 -3.38983,-55.08474 -0.884633,-3.09621 -9.116318,-10.490364 -11.864407,-11.864408 -2.87271,-1.436355 -10.159691,3.47915 -13.135593,0 z"
       id="path3701"
       inkscape:connector-curvature="0" />
    <path
       style="fill:none;stroke:#000000;stroke-width:1px;stroke-linecap:butt;stroke-linejoin:miter;stroke-opacity:1"
       d="m 61.016949,164.83051 c 8.214041,1.91881 9.162263,19.27617 11.016949,26.69491 2.976026,11.90411 5.508475,25.85134 5.508475,38.1356 0,10.07352 3.571979,20.33898 2.966102,20.33898 -5.319857,0 -26.256715,2.54961 -33.898306,-1.27119 -2.020015,-1.01 -1.678417,-13.10259 -3.38983,-16.52542 -7.298226,-14.59645 -14.947049,-19.71923 -10.169492,-36.44068 4.27425,-14.95987 15.402725,-40.9829 27.966102,-30.9322 z"
       id="path3703"
       inkscape:connector-curvature="0" />
    <path
       style="fill:#d2b48c;stroke:#000000;stroke-width:1px;stroke-linecap:butt;stroke-linejoin:miter;stroke-opacity:1"
       d="m 56.355932,233.89831 c -8.200371,0.17515 2.552428,12.76213 0,0 z"
       id="path3705"
       inkscape:connector-curvature="0" />
    <path
       style="fill:#d2b48c;stroke:#000000;stroke-width:1px;stroke-linecap:butt;stroke-linejoin:miter;stroke-opacity:1"
       d="m 52.542373,222.0339 c -1.832587,14.75282 19.784963,0 0,0 z"
       id="path3707"
       inkscape:connector-curvature="0" />
    <path
       style="fill:#d2b48c;stroke:#000000;stroke-width:1px;stroke-linecap:butt;stroke-linejoin:miter;stroke-opacity:1"
       d="m 55.508475,205.9322 c -5.960967,11.43152 13.961153,6.98058 0,0 z"
       id="path3709"
       inkscape:connector-curvature="0" />
    <path
       style="fill:#d2b48c;stroke:#000000;stroke-width:1px;stroke-linecap:butt;stroke-linejoin:miter;stroke-opacity:1"
       d="m 40.254237,209.32203 c 2.943423,12.86113 11.138365,-4.45534 0,0 z"
       id="path3711"
       inkscape:connector-curvature="0" />
    <path
       style="fill:#d2b48c;stroke:#000000;stroke-width:1px;stroke-linecap:butt;stroke-linejoin:miter;stroke-opacity:1"
       d="m 47.881356,191.94915 c -9.16612,8.72464 8.010169,11.21424 0,0 z"
       id="path3713"
       inkscape:connector-curvature="0" />
    <path
       style="fill:#6699cc;stroke:#000000;stroke-width:1px;stroke-linecap:butt;stroke-linejoin:miter;stroke-opacity:1"
       d="m 79.661017,250 c 6.027215,-2.33488 14.826562,4.23492 23.305083,9.32203 2.26261,1.35757 10.26576,2.11865 7.62712,2.11865 -1.10739,0 0.64449,0.762 -0.42373,2.54237 -1.84559,3.07598 -3.82656,5.72684 -5.9322,6.77966 -3.59927,1.79964 -41.562835,-2.15605 -43.220341,-3.81356 C 50.714853,256.64706 73.446027,246.8925 79.661017,250 z"
       id="path3715"
       inkscape:connector-curvature="0" />
    <path
       style="fill:#ffff99;stroke:#000000;stroke-width:1px;stroke-linecap:butt;stroke-linejoin:miter;stroke-opacity:1"
       d="m 50,163.98305 c -0.231663,-3.44079 -6.929373,-7.90113 -9.322034,-5.50847 -2.496548,2.49654 -8.001482,1.34661 -10.169491,4.23728 -3.209633,4.27951 -7.124712,9.85478 -8.474577,15.25424 -1.265358,5.06143 -6.389945,42.30486 -5.084745,44.91526 2.202083,4.40416 8.443069,7.5641 10.59322,11.8644 1.75421,3.50842 1.86473,7.54302 2.966102,9.74577 4.833321,9.66664 25.650511,22.85152 32.203389,9.74576 0.213361,-0.42672 1.694916,-1.44965 1.694916,-1.69492 0,-3.1361 -6.185932,1.27119 -9.322034,1.27119 -1.552738,0 -17.372882,-3.57143 -17.372882,-8.47458 0,-8.82602 -9.416521,-17.04364 -14.406779,-22.0339 -5.960447,-5.96044 5.035156,-44.39234 9.745762,-53.81355 5.682433,-12.7094 12.57957,3.23069 16.949153,-5.50848 z"
       id="path3721"
       inkscape:connector-curvature="0" />
    <path
       style="fill:#d2b48c;stroke:#000000;stroke-width:1px;stroke-linecap:butt;stroke-linejoin:miter;stroke-opacity:1"
       d="m 54.237288,175.84746 c -4.398181,8.31354 9.511921,9.51192 0,0 z"
       id="path3723"
       inkscape:connector-curvature="0" />
    <path
       style="fill:#d2b48c;stroke:#000000;stroke-width:1px;stroke-linecap:butt;stroke-linejoin:miter;stroke-opacity:1"
       d="m 61.864407,194.91525 c -2.451584,1.13381 1.224977,7.67333 3.38983,5.50848 6.280287,-6.28029 -4.173876,-5.19486 -3.38983,-5.50848 z"
       id="path3725"
       inkscape:connector-curvature="0" />
    <path
       style="fill:#800000;stroke:#000000;stroke-width:1px;stroke-linecap:butt;stroke-linejoin:miter;stroke-opacity:1"
       d="m 69.491525,267.79661 c -2.489386,-0.71772 -2.774525,-1.88649 -2.966101,-1.69492 -7.853215,7.85322 6.472278,6.95419 2.966101,1.69492 z"
       id="path3727"
       inkscape:connector-curvature="0" />
  </g>
</svg>
