<?xml version="1.0" encoding="UTF-8" standalone="no"?>
<!-- Created with Inkscape (http://www.inkscape.org/) -->

<svg
   xmlns:dc="http://purl.org/dc/elements/1.1/"
   xmlns:cc="http://creativecommons.org/ns#"
   xmlns:rdf="http://www.w3.org/1999/02/22-rdf-syntax-ns#"
   xmlns:svg="http://www.w3.org/2000/svg"
   xmlns="http://www.w3.org/2000/svg"
   xmlns:sodipodi="http://sodipodi.sourceforge.net/DTD/sodipodi-0.dtd"
   xmlns:inkscape="http://www.inkscape.org/namespaces/inkscape"
   width="300"
   height="300"
   id="svg2"
   version="1.1"
   inkscape:version="0.48.0 r9654"
   sodipodi:docname="Page3.svg">
  <defs
     id="defs4" />
  <sodipodi:namedview
     id="base"
     pagecolor="#ffffff"
     bordercolor="#666666"
     borderopacity="1.0"
     inkscape:pageopacity="0.0"
     inkscape:pageshadow="2"
     inkscape:zoom="1.7866667"
     inkscape:cx="82.276119"
     inkscape:cy="150"
     inkscape:document-units="px"
     inkscape:current-layer="layer13"
     showgrid="false"
     fit-margin-top="0"
     fit-margin-left="0"
     fit-margin-right="0"
     fit-margin-bottom="0"
     gridtolerance="5"
     inkscape:window-width="1153"
     inkscape:window-height="756"
     inkscape:window-x="37"
     inkscape:window-y="22"
     inkscape:window-maximized="0" />
  <metadata
     id="metadata7">
    <rdf:RDF>
      <cc:Work
         rdf:about="">
        <dc:format>image/svg+xml</dc:format>
        <dc:type
           rdf:resource="http://purl.org/dc/dcmitype/StillImage" />
        <dc:title />
      </cc:Work>
    </rdf:RDF>
  </metadata>
  <g
     inkscape:groupmode="layer"
     id="layer13"
     inkscape:label="bg">
    <path
       style="fill:#fffacd;stroke:#000000;stroke-width:1px;stroke-linecap:butt;stroke-linejoin:miter;stroke-opacity:1"
       d="M 5.5970149,8.9552239 C 85.586943,6.9012432 163.10092,5.5970149 242.35075,5.5970149 c 6.06243,0 52.81336,-2.5970888 55.41044,0 1.26423,1.2642222 -0.7457,6.3427221 -1.1194,6.7164181 -5.13728,5.137279 -1.6791,28.341712 -1.6791,36.380597 0,20.436053 -3.56613,136.15132 1.6791,146.64179 3.27463,6.54925 5.94292,83.26342 -1.1194,97.38806 -0.0123,0.0246 -52.34176,1.67911 -56.52985,1.67911 -20.83982,0 -46.61253,-0.0393 -66.60448,-5.03732 -23.70625,-5.92656 -104.816222,2.23881 -134.328359,2.23881 -5.500608,0 -27.140826,3.08305 -30.7835816,-0.5597 -4.4709821,-4.47099 1.6791045,-33.80674 1.6791045,-40.29851 0,-79.06356 -3.358209,-167.97958 -3.358209,-241.7910461 z"
       id="path5981"
       inkscape:connector-curvature="0" />
  </g>
  <g
     inkscape:groupmode="layer"
     id="layer36"
     inkscape:label="Chair">
    <path
       style="fill:#d2691e;stroke:#000000;stroke-width:1px;stroke-linecap:butt;stroke-linejoin:miter;stroke-opacity:1"
       d="m 62.711864,92.372881 c 3.485791,41.617549 -2.542372,84.620929 -2.542372,126.694919 -7.945759,28.80156 12.00093,9.74576 21.18644,9.74576 8.47373,0 38.874248,-6.04101 44.491528,-0.42373 3.10988,3.10988 0.84746,18.88196 0.84746,24.57627 0,2.90148 3.63014,14.5902 1.69491,16.52543 -0.67458,0.67457 -2.7637,-0.12523 -3.38983,0 -12.20792,2.44158 6.2731,-36.07377 -14.40678,-32.62712 -16.205183,2.70086 -32.231571,1.709 -45.762712,8.47457 -3.338788,1.6694 0.01395,15.22634 -1.694915,18.64407 -0.624382,1.24877 -3.453369,0 -4.237288,0 -8.332095,0 -7.208263,-6.84302 -8.050847,-17.79661 -0.324378,-4.21691 -0.883392,-8.44612 -1.271187,-12.71186 -3.761868,-41.38055 -4.661017,-83.31501 -4.661017,-124.57627 0,-7.8285 12.891985,-28.786995 17.79661,-16.525429 z"
       id="path3534"
       inkscape:connector-curvature="0" />
  </g>
  <g
     inkscape:groupmode="layer"
     id="layer35"
     inkscape:label="feet">
    <path
       style="fill:#8b4513;stroke:#000000;stroke-width:1px;stroke-linecap:butt;stroke-linejoin:miter;stroke-opacity:1"
       d="m 133.89831,259.74576 c -0.96957,1.15168 -3.69302,6.90021 -2.54238,8.05085 1.1142,1.11419 22.78091,2.11864 29.23729,2.11864 2.75412,0 8.28816,-1.32207 9.74576,-4.23728 0.44665,-0.8933 0.42373,-3.96484 0.42373,-2.96611 0,1.63713 -29.2751,-1.70121 -36.8644,-2.9661 z"
       id="path3531"
       inkscape:connector-curvature="0" />
  </g>
  <g
     inkscape:groupmode="layer"
     id="layer33"
     inkscape:label="Legs">
    <path
       style="fill:#b8860b;stroke:#000000;stroke-width:1px;stroke-linecap:butt;stroke-linejoin:miter;stroke-opacity:1"
       d="m 84.322034,218.22034 c 0.712274,23.45341 35.739006,3.46272 45.762716,8.47458 7.57295,3.78647 -6.20633,34.47164 -5.08475,35.59322 2.62211,2.62211 27.9409,0.42372 28.81356,0.42372 1.54688,0 5.74867,0.18354 6.77966,-0.84745 0.24416,-0.24417 -0.42373,-4.04894 -0.42373,-5.93221 0,-19.54894 -9.23447,-33.38701 -22.45763,-46.61017 -4.75231,-4.75231 -35.53912,0.0924 -40.254233,1.27119 -4.828699,1.20718 -8.973173,4.65396 -13.135593,7.62712 z"
       id="path3513"
       inkscape:connector-curvature="0" />
  </g>
  <g
     inkscape:groupmode="layer"
     id="layer32"
     inkscape:label="Shirt">
    <path
       style="fill:#ff0000;stroke:#000000;stroke-width:1px;stroke-linecap:butt;stroke-linejoin:miter;stroke-opacity:1"
       d="m 81.779661,138.98305 c -12.739585,6.81021 -30.911874,69.92542 -13.983051,78.38983 4.581021,2.29051 28.986843,-1.27119 35.16949,-1.27119 6.82602,0 34.50544,0.66405 38.98305,-3.81355 4.03572,-4.03573 -5.18898,-27.11865 -4.66101,-27.11865 0.55939,0 -0.73195,-1.81043 0,-2.54237 5.00856,-5.00857 16.72677,5.26505 12.71186,-6.77966 -0.66454,-1.99364 0.42548,-5.50498 0,-6.35593 -0.82385,-1.64771 -12.14973,1.54799 -15.25424,-4.66102 -4.52191,-9.04382 -10.17027,-22.45822 -16.94915,-27.54237"
       id="path3508"
       inkscape:connector-curvature="0" />
    <path
       style="fill:none;stroke:#000000;stroke-width:1px;stroke-linecap:butt;stroke-linejoin:miter;stroke-opacity:1"
       d="m 96.610169,159.74576 c -1.441657,2.97444 -0.695157,6.74649 -1.694915,9.74577 -1.921923,5.76576 -4.16333,15.75192 0.847458,20.76271 4.973128,4.97312 13.800998,1.69491 20.762708,1.69491 1.71761,0 7.20339,1.48444 7.20339,0.84746 0,-1.32412 0.59417,-10.42278 -0.42373,-11.44068 -0.71497,-0.71497 -18.0367,2.59883 -15.25423,-2.9661 1.45904,-2.91809 3.96015,-5.52452 5.08474,-8.8983"
       id="path3510"
       inkscape:connector-curvature="0" />
  </g>
  <g
     inkscape:groupmode="layer"
     id="layer31"
     inkscape:label=" Head"
     style="display:inline">
    <path
       style="fill:#ffe4e1;stroke:#000000;stroke-width:1px;stroke-linecap:butt;stroke-linejoin:miter;stroke-opacity:1"
       d="m 116.52542,81.355932 c -7.40502,-9.557883 -17.267798,-1.618884 -24.999996,1.694915 -5.323522,2.28151 -14.645282,5.866227 -17.79661,10.593221 -2.089389,3.134083 -1.46053,7.347692 -2.542373,10.593222 -6.268741,18.80622 4.957334,33.71459 23.305084,39.83051 15.073795,5.02459 33.475145,-13.56104 37.711865,-26.27119 3.24432,-9.73297 -8.61788,-30.792612 -15.67797,-36.440678 z"
       id="path3505"
       inkscape:connector-curvature="0" />
  </g>
  <g
     inkscape:groupmode="layer"
     id="layer34"
     inkscape:label="Hands">
    <path
       style="fill:#ffe4e1;stroke:#000000;stroke-width:1px;stroke-linecap:butt;stroke-linejoin:miter;stroke-opacity:1"
       d="m 150,170.76271 c 13.60738,-7.17887 5.08475,-3.37693 5.08475,0.42373 0,2.43823 4.76515,-1.27119 7.20339,-1.27119 2.57884,0 6.71676,7.75291 6.35593,8.47458 -0.61119,1.22238 -3.24241,-0.0737 -4.23729,0.42373 -1.17939,0.58969 0.58579,2.24948 -0.84746,2.9661 -3.3268,1.6634 -9.05431,0.69145 -12.28813,-2.54237 -1.41393,-1.41393 -1.24409,-8.33908 -1.27119,-8.47458 z"
       id="path3526"
       inkscape:connector-curvature="0" />
    <path
       style="fill:#ffe4e1;stroke:#000000;stroke-width:1px;stroke-linecap:butt;stroke-linejoin:miter;stroke-opacity:1"
       d="m 123.30508,183.47458 c 0.41981,2.15211 6.35594,-3.8876 6.35594,-1.69492 0,1.41243 -3.95481,3.38983 -2.54238,3.38983 23.19744,0 2.02742,15.91924 -2.9661,5.9322 -1.90458,-3.80917 0.242,-5.81135 -0.84746,-7.62711 z"
       id="path3528"
       inkscape:connector-curvature="0" />
  </g>
  <g
     inkscape:groupmode="layer"
     id="layer37"
     inkscape:label="Burner">
    <path
       style="fill:#565248;stroke:#000000;stroke-width:1px;stroke-linecap:butt;stroke-linejoin:miter;stroke-opacity:1"
       d="m 216.10169,155.08475 c 0.1889,0.43357 8.47458,-0.7828 8.47458,-0.42373 0,3.12375 1.27119,8.71928 1.27119,12.71186 0,2.25989 0,4.51978 0,6.77966 0,0.84746 0,3.38983 0,2.54238 0,-0.28249 0,-1.12995 0,-0.84746 0,1.90997 -0.29901,4.29964 0.42373,4.66101 3.26315,1.63158 10.13237,-2.80219 11.01695,3.38984 0.0521,0.36482 0.91094,2.05515 0.42372,2.54237 -1.20188,1.20188 -6.95047,0.3605 -8.8983,0.84746 -0.89517,0.22379 -22.45353,-0.84336 -22.45763,-0.84746 -0.36214,-0.36214 0,-3.28099 0,-3.81356 0,-1.50268 9.09913,-2.43092 11.01695,-3.38983 1.11329,-0.55665 -0.84746,-6.91143 -0.84746,-7.62712 0,-7.90688 0.48556,-11.97898 -0.42373,-16.52542 z"
       id="path3539"
       inkscape:connector-curvature="0" />
    <path
       style="fill:#565248;stroke:#000000;stroke-width:1px;stroke-linecap:butt;stroke-linejoin:miter;stroke-opacity:1"
       d="m 237.71186,183.89831 c 0.28249,-0.56498 0.28249,-1.97741 0.84746,-1.69492 0.56497,0.28249 -1.41243,1.9774 -0.84746,1.69492 0.91099,-0.4555 0.72867,-2.22029 1.69492,-2.54238 2.59751,-0.86584 4.06066,-2.41882 7.20339,-0.84746 1.46036,0.73019 1.63327,4.47609 2.11864,5.93221 0.33306,0.99916 0.68207,3.81356 0.42373,3.81356 -0.19975,0 0.24507,-0.3344 0.42373,-0.42373 1.83294,-0.91647 2.23543,-2.29882 4.23729,-2.9661 1.0057,-0.33524 4.35539,0.38902 6.35593,3.38983 1.82738,2.74106 1.61018,7.11859 0.84746,10.16949 -0.21628,0.8651 0.10395,3.70961 -0.42373,4.23729 -0.28249,0.28248 -1.24695,0.84745 -0.84746,0.84745 3.41459,0 8.30115,-9.83247 12.71187,-7.62711 4.06442,2.03221 2.11864,10.61523 2.11864,13.55932 0,1.33844 -0.4954,4.28507 -0.42373,4.23729 2.70823,-1.80549 6.40535,-2.35522 9.32204,-3.81356 0.97736,-0.48869 1.66369,-1.23996 2.11864,-1.69492 0.90935,-0.90935 6.39075,-0.77782 7.20339,0.84746 1.78933,3.57865 4.71915,4.77727 6.35593,8.05085 0.37001,0.74001 -0.0334,2.05192 0.84746,3.81356 -1.50828,7.54139 -2.64487,-1.95803 -5.50847,-3.38983 -0.92684,-0.46342 -2.34265,-0.7476 -3.38984,-1.27119 -0.9611,-0.48055 -2.81613,-2.77487 -3.38983,-2.9661 -1.66001,-0.55334 -14.62449,6.98567 -15.67796,5.9322 -4.89105,-4.89105 -1.69492,-7.28782 -1.69492,-12.71186 0,-1.04766 -0.1488,-2.69118 -0.84745,-3.38983 -0.19975,-0.19975 0.28248,-0.84746 0,-0.84746 -5.44395,0 -9.89839,7.89822 -11.44068,6.35593 -2.06216,-2.06216 -0.31174,-12.3759 -1.27119,-15.25424 -2.91455,-8.74364 -7.51797,3.07525 -8.8983,1.69492 -3.1091,-3.10909 -1.84301,-10.74131 -4.23729,-13.13559 -1.51237,-1.51238 -3.35327,4.69758 -4.66102,3.38983 -0.65475,-0.65476 -0.23821,-2.94381 -1.27119,-3.38983 z"
       id="path3541"
       inkscape:connector-curvature="0" />
  </g>
  <g
     inkscape:groupmode="layer"
     id="layer44"
     inkscape:label="Words"
     sodipodi:insensitive="true"
     style="display:inline">
    <path
       style="fill:#eeeeee;stroke:#000000;stroke-width:1px;stroke-linecap:butt;stroke-linejoin:miter;stroke-opacity:1"
       d="m 138.55932,74.576271 c -4.76423,3.434965 -0.40308,11.64222 5.08475,8.898305 1.57858,-0.789291 1.27033,-7.627976 0,-8.898305 -1.93507,-1.935068 -7.73099,0.88208 -5.08475,0 z"
       id="path3607"
       inkscape:connector-curvature="0" />
    <path
       style="fill:#eeeeee;stroke:#000000;stroke-width:1px;stroke-linecap:butt;stroke-linejoin:miter;stroke-opacity:1"
       d="m 167.37288,41.949153 c 0.68177,8.050732 1.80704,16.749671 4.66102,22.457627 4.6667,-2.800021 12.96292,-7.972454 9.32203,-15.254238 -1.63995,-3.279911 -14.00703,2.118644 -11.8644,2.118644 0.64036,0 3.54659,-3.122865 4.23728,-3.813559 10.41447,-10.414467 -2.98701,-17.311625 -6.35593,-5.508474 z"
       id="path3609"
       inkscape:connector-curvature="0" />
    <path
       style="fill:#eeeeee;stroke:#000000;stroke-width:1px;stroke-linecap:butt;stroke-linejoin:miter;stroke-opacity:1"
       d="m 194.91525,46.610169 c -10.16996,-6.589863 -11.40315,20.725193 -0.84745,10.169492 2.09994,-2.099939 -1.00703,-8.315011 0.84745,-10.169492 0.0329,-0.03287 0.84746,4.234279 0.84746,5.084746 0,2.900327 3.76148,4.237288 4.66102,4.237288"
       id="path3611"
       inkscape:connector-curvature="0" />
    <path
       style="fill:#eeeeee;stroke:#000000;stroke-width:1px;stroke-linecap:butt;stroke-linejoin:miter;stroke-opacity:1"
       d="m 205.08475,44.915254 c 1.07669,-0.925661 0.37692,11.911215 0.84745,11.440678 1.56647,-1.566461 -0.22388,-5.260552 0.42373,-7.20339 0.35237,-1.057118 1.54796,-2.966101 2.54238,-2.966101 4.16341,0 2.18598,5.219422 4.66101,10.169491"
       id="path3625"
       inkscape:connector-curvature="0" />
    <path
       style="fill:#eeeeee;stroke:#000000;stroke-width:1px;stroke-linecap:butt;stroke-linejoin:miter;stroke-opacity:1"
       d="m 223.72881,45.338983 c -5.60541,-3.066617 -7.85662,8.995417 -3.81356,11.016949 4.12603,2.063013 9.32606,-8.470557 7.20339,-10.59322 -1.83408,-1.834089 -0.84745,4.511671 -0.84745,7.20339 0,3.009275 -3.7725,14.608379 -6.35594,15.254237 -1.24082,0.310205 -2.53455,0.423729 -3.81356,0.423729"
       id="path3627"
       inkscape:connector-curvature="0" />
    <path
       style="fill:#eeeeee;stroke:#000000;stroke-width:1px;stroke-linecap:butt;stroke-linejoin:miter;stroke-opacity:1"
       d="m 233.47458,27.542373 c 0.81922,5.365864 1.27118,14.230154 1.27118,17.79661"
       id="path3629"
       inkscape:connector-curvature="0" />
    <path
       style="fill:#eeeeee;stroke:#000000;stroke-width:1px;stroke-linecap:butt;stroke-linejoin:miter;stroke-opacity:1"
       d="m 234.32203,49.576271 c -3.71099,0.430308 -2.82978,4.373606 -1.27118,5.932204 0.29962,0.299621 1.69491,0 1.27118,0 -0.28248,0 -1.0472,0.199747 -0.84745,0 0.78077,-0.780772 1.25942,0.02352 1.69491,-0.847458 0.86163,-1.723256 -1.81216,-7.49651 -0.84746,-5.084746 z"
       id="path3631"
       inkscape:connector-curvature="0" />
    <path
       style="fill:#eeeeee;stroke:#000000;stroke-width:1px;stroke-linecap:butt;stroke-linejoin:miter;stroke-opacity:1"
       d="m 164.83051,31.355932 c 6.40497,-7.043535 12.61677,-14.9256 19.91525,-7.627118 0.53502,0.535021 2.9661,3.567573 2.9661,3.813559 0,0.440885 1.87394,-3.055613 2.54238,-3.389831 2.55937,-1.279688 6.88618,-9.322034 10.59322,-9.322034 2.01563,0 5.5214,-1.900314 7.62712,-0.847457 0.67588,0.337941 0.44764,2.742281 0.84745,2.542373 13.08119,-6.5405946 15.68776,-4.234024 28.38983,0 1.32078,0.440257 3.7142,1.171818 4.66102,2.118644 2.44424,2.44424 7.38309,8.115186 5.08475,12.711864 -0.36747,0.73494 -3.38983,2.965864 -3.38983,3.389831 0,0.963698 2.1716,3.124969 2.54237,4.237288 0.7094,2.128198 1.36097,9.097586 0.42373,11.440678 -1.14458,2.861438 -2.15201,6.389293 -4.23729,8.474576 -0.82091,0.820908 -3.41638,1.297736 -4.23729,2.118644 -1.24133,1.241336 -2.13543,5.118321 -2.9661,6.779661 -2.71845,5.436903 -8.21319,9.484373 -12.28814,13.559322 -0.62544,0.625446 -2.22588,0.238676 -2.9661,0.423729 -8.36332,2.090831 -10.83172,-9.063863 -15.25423,-10.169492 -4.95744,-1.239358 -6.6974,2.309943 -11.01695,3.389831 -1.58398,0.395994 -11.23709,1.861097 -12.71187,1.271186 -0.84402,-0.337607 -2.52054,-1.917695 -2.9661,-1.694915 -3.198,1.598998 -6.94862,3.051024 -11.01695,1.694915 -3.38884,-1.129614 -7.58404,-4.765183 -8.8983,-8.050847 -0.44862,-1.121545 0.22531,-1.04587 -0.42373,-1.694915 -0.78816,-0.788162 0.42373,-4.3554 0.42373,-4.237288 0,1.323389 -2.52559,-2.179883 -3.38983,-3.389831 -2.83607,-3.970496 -4.55497,-7.097824 -2.96611,-11.864407 2.36585,-7.097534 10.09146,-10.437151 12.71187,-15.677966 z"
       id="path3633"
       inkscape:connector-curvature="0" />
    <path
       style="fill:#eeeeee;stroke:#000000;stroke-width:1px;stroke-linecap:butt;stroke-linejoin:miter;stroke-opacity:1"
       d="m 139.40678,94.067797 c -4.6316,1.333357 -1.09448,12.623513 3.81356,10.169493 4.05138,-2.02569 1.54478,-10.169493 -3.81356,-10.169493 z"
       id="path3635"
       inkscape:connector-curvature="0" />
  </g>
  <g
     style="display:inline"
     inkscape:label="Words copy"
     id="g3637"
     inkscape:groupmode="layer">
    <path
       inkscape:connector-curvature="0"
       id="path3639"
       d="m 138.55932,74.576271 c -4.76423,3.434965 -0.40308,11.64222 5.08475,8.898305 1.57858,-0.789291 1.27033,-7.627976 0,-8.898305 -1.93507,-1.935068 -7.73099,0.88208 -5.08475,0 z"
       style="fill:none;stroke:#000000;stroke-width:1px;stroke-linecap:butt;stroke-linejoin:miter;stroke-opacity:1" />
    <path
       inkscape:connector-curvature="0"
       id="path3641"
       d="m 167.37288,41.949153 c 0.68177,8.050732 1.80704,16.749671 4.66102,22.457627 4.6667,-2.800021 12.96292,-7.972454 9.32203,-15.254238 -1.63995,-3.279911 -14.00703,2.118644 -11.8644,2.118644 0.64036,0 3.54659,-3.122865 4.23728,-3.813559 10.41447,-10.414467 -2.98701,-17.311625 -6.35593,-5.508474 z"
       style="fill:none;stroke:#000000;stroke-width:1px;stroke-linecap:butt;stroke-linejoin:miter;stroke-opacity:1" />
    <path
       inkscape:connector-curvature="0"
       id="path3643"
       d="m 194.91525,46.610169 c -10.16996,-6.589863 -11.40315,20.725193 -0.84745,10.169492 2.09994,-2.099939 -1.00703,-8.315011 0.84745,-10.169492 0.0329,-0.03287 0.84746,4.234279 0.84746,5.084746 0,2.900327 3.76148,4.237288 4.66102,4.237288"
       style="fill:none;stroke:#000000;stroke-width:1px;stroke-linecap:butt;stroke-linejoin:miter;stroke-opacity:1" />
    <path
       inkscape:connector-curvature="0"
       id="path3645"
       d="m 205.08475,44.915254 c 1.07669,-0.925661 0.37692,11.911215 0.84745,11.440678 1.56647,-1.566461 -0.22388,-5.260552 0.42373,-7.20339 0.35237,-1.057118 1.54796,-2.966101 2.54238,-2.966101 4.16341,0 2.18598,5.219422 4.66101,10.169491"
       style="fill:none;stroke:#000000;stroke-width:1px;stroke-linecap:butt;stroke-linejoin:miter;stroke-opacity:1" />
    <path
       inkscape:connector-curvature="0"
       id="path3647"
       d="m 223.72881,45.338983 c -5.60541,-3.066617 -7.85662,8.995417 -3.81356,11.016949 4.12603,2.063013 9.32606,-8.470557 7.20339,-10.59322 -1.83408,-1.834089 -0.84745,4.511671 -0.84745,7.20339 0,3.009275 -3.7725,14.608379 -6.35594,15.254237 -1.24082,0.310205 -2.53455,0.423729 -3.81356,0.423729"
       style="fill:none;stroke:#000000;stroke-width:1px;stroke-linecap:butt;stroke-linejoin:miter;stroke-opacity:1" />
    <path
       inkscape:connector-curvature="0"
       id="path3649"
       d="m 233.47458,27.542373 c 0.81922,5.365864 1.27118,14.230154 1.27118,17.79661"
       style="fill:none;stroke:#000000;stroke-width:1px;stroke-linecap:butt;stroke-linejoin:miter;stroke-opacity:1" />
    <path
       inkscape:connector-curvature="0"
       id="path3651"
       d="m 234.32203,49.576271 c -3.71099,0.430308 -2.82978,4.373606 -1.27118,5.932204 0.29962,0.299621 1.69491,0 1.27118,0 -0.28248,0 -1.0472,0.199747 -0.84745,0 0.78077,-0.780772 1.25942,0.02352 1.69491,-0.847458 0.86163,-1.723256 -1.81216,-7.49651 -0.84746,-5.084746 z"
       style="fill:none;stroke:#000000;stroke-width:1px;stroke-linecap:butt;stroke-linejoin:miter;stroke-opacity:1" />
    <path
       inkscape:connector-curvature="0"
       id="path3653"
       d="m 164.83051,31.355932 c 6.40497,-7.043535 12.61677,-14.9256 19.91525,-7.627118 0.53502,0.535021 2.9661,3.567573 2.9661,3.813559 0,0.440885 1.87394,-3.055613 2.54238,-3.389831 2.55937,-1.279688 6.88618,-9.322034 10.59322,-9.322034 2.01563,0 5.5214,-1.900314 7.62712,-0.847457 0.67588,0.337941 0.44764,2.742281 0.84745,2.542373 13.08119,-6.5405946 15.68776,-4.234024 28.38983,0 1.32078,0.440257 3.7142,1.171818 4.66102,2.118644 2.44424,2.44424 7.38309,8.115186 5.08475,12.711864 -0.36747,0.73494 -3.38983,2.965864 -3.38983,3.389831 0,0.963698 2.1716,3.124969 2.54237,4.237288 0.7094,2.128198 1.36097,9.097586 0.42373,11.440678 -1.14458,2.861438 -2.15201,6.389293 -4.23729,8.474576 -0.82091,0.820908 -3.41638,1.297736 -4.23729,2.118644 -1.24133,1.241336 -2.13543,5.118321 -2.9661,6.779661 -2.71845,5.436903 -8.21319,9.484373 -12.28814,13.559322 -0.62544,0.625446 -2.22588,0.238676 -2.9661,0.423729 -8.36332,2.090831 -10.83172,-9.063863 -15.25423,-10.169492 -4.95744,-1.239358 -6.6974,2.309943 -11.01695,3.389831 -1.58398,0.395994 -11.23709,1.861097 -12.71187,1.271186 -0.84402,-0.337607 -2.52054,-1.917695 -2.9661,-1.694915 -3.198,1.598998 -6.94862,3.051024 -11.01695,1.694915 -3.38884,-1.129614 -7.58404,-4.765183 -8.8983,-8.050847 -0.44862,-1.121545 0.22531,-1.04587 -0.42373,-1.694915 -0.78816,-0.788162 0.42373,-4.3554 0.42373,-4.237288 0,1.323389 -2.52559,-2.179883 -3.38983,-3.389831 -2.83607,-3.970496 -4.55497,-7.097824 -2.96611,-11.864407 2.36585,-7.097534 10.09146,-10.437151 12.71187,-15.677966 z"
       style="fill:none;stroke:#000000;stroke-width:1px;stroke-linecap:butt;stroke-linejoin:miter;stroke-opacity:1" />
    <path
       inkscape:connector-curvature="0"
       id="path3655"
       d="m 139.40678,94.067797 c -4.6316,1.333357 -1.09448,12.623513 3.81356,10.169493 4.05138,-2.02569 1.54478,-10.169493 -3.81356,-10.169493 z"
       style="fill:none;stroke:#000000;stroke-width:1px;stroke-linecap:butt;stroke-linejoin:miter;stroke-opacity:1" />
  </g>
  <g
     inkscape:groupmode="layer"
     id="layer39"
     inkscape:label="Flames2"
     style="display:inline">
    <path
       style="fill:#8b0000;stroke:#000000;stroke-width:1px;stroke-linecap:butt;stroke-linejoin:miter;stroke-opacity:1"
       d="m 225.42373,154.66102 c 5.55177,-5.3857 10.73626,-11.58372 15.67796,-16.52543 1.07896,-1.07895 2.76345,-2.98452 3.38984,-4.23728 0.12633,-0.25267 0,-1.12995 0,-0.84746 0,0.61635 -8.79266,8.05084 -11.86441,8.05084 -1.13064,0 3.22244,-14.16095 3.38983,-14.8305 0.51144,-2.04575 -5.50848,13.53409 -5.50848,6.35593 0,-4.07801 0.8368,-20.34964 -1.69491,-22.88136 -0.44888,-0.44888 -2.14454,10.97811 -2.9661,9.74577 -0.50807,-0.76211 -3.27357,-4.31225 -3.38983,-4.66102 -0.84208,-2.52624 -1.37493,-4.81663 -2.9661,-7.20339 -1.15485,-1.73228 -2.92487,-4.31976 -2.96611,-4.23729 -0.30767,0.61535 2.54238,13.49631 2.54238,15.25424 0,1.50143 -2.32816,-1.90443 -3.38983,-2.9661 -1.77725,-1.77725 -5.60817,-5.50848 -8.89831,-5.50848 -0.85257,0 -1.80961,-0.53842 -1.69491,-0.42373 0.74795,0.74796 7.91196,13.98305 6.77966,13.98305 -1.43686,0 -4.5927,-1.27118 -6.77966,-1.27118 -1.41243,0 -4.23729,1.41243 -4.23729,0 0,-0.9169 7.08914,5.9322 6.35593,5.9322 -0.81184,0 -2.5185,0.98074 -3.38983,1.27119 -2.74251,0.91417 -17.37288,-0.34986 -17.37288,5.08474 0,0.0244 8.96998,2.32735 8.05085,5.08475 -0.26243,0.78729 -9.1977,4.84753 -8.47458,5.9322 1.71614,2.57421 12.43819,1.03872 15.67797,2.11865 5.5451,1.84837 8.19212,2.61301 12.28813,4.66101 0.66321,0.33161 1.3558,0.93207 1.69492,1.27119 0.19974,0.19975 -0.28249,0.84746 0,0.84746 4.34125,0 5.02939,-2.82983 9.74576,0 z"
       id="path3547"
       inkscape:connector-curvature="0" />
  </g>
  <g
     inkscape:groupmode="layer"
     id="layer38"
     inkscape:label="Flames">
    <path
       style="fill:#ffff00;stroke:#000000;stroke-width:1px;stroke-linecap:butt;stroke-linejoin:miter;stroke-opacity:1"
       d="m 216.10169,154.66102 c -1.60465,-3.54022 -13.68248,-15.85537 -12.71186,-17.79661 0.36832,-0.73664 1.38201,0.90287 2.11864,1.27118 0.95677,0.47838 2.33296,0.84844 3.38984,1.27119 0.6817,0.27268 9.48722,4.0721 8.47457,5.08475 -0.93333,0.93332 -7.35966,-16.1017 -4.23729,-16.1017 0.19025,0 3.04162,6.00772 4.66102,7.62712 0.7202,0.7202 1.69492,3.56089 1.69492,2.54237 0,-1.62139 3.6391,-14.1575 4.66101,-13.13559 1.06707,1.06707 -0.50337,6.17113 -0.84746,7.20339 -0.40127,1.20382 0.56258,3.11213 0,4.23729 -4.40215,8.80431 2.69599,-6.93262 -2.54237,5.50847 -0.66227,1.57291 -1.5194,3.06304 -2.11864,4.66102 -0.35068,0.93515 0.57501,2.9661 -0.42373,2.9661 -1.90022,0 7.50031,-10.46642 8.05085,-11.01695 0.94674,-0.94674 -1.48396,3.25101 -1.69492,3.81356 -0.0691,0.18439 -1.23792,4.66102 -1.27119,4.66102 -1.30614,0 10.1695,-6.65275 10.1695,-4.66102 0,3.44987 -7.36224,10.67264 -8.89831,11.44068"
       id="path3544"
       inkscape:connector-curvature="0" />
  </g>
  <g
     inkscape:groupmode="layer"
     id="layer40"
     inkscape:label="table">
    <path
       style="fill:#d2691e;stroke:#000000;stroke-width:1px;stroke-linecap:butt;stroke-linejoin:miter;stroke-opacity:1"
       d="m 192.37288,188.13559 c 10.33664,-2.32569 13.49125,-1.27118 24.15254,-1.27118 1.88442,0 3.68033,0.81415 5.50848,1.27118 3.12204,0.78051 15.76468,-0.84745 16.94915,-0.84745 0.80001,0 2.2175,-0.32487 2.9661,0.42372 0.90609,0.90609 -0.30621,8.23954 -0.42373,8.47458 -1.11036,2.22073 0.27401,7.70345 0,10.16949 -0.22567,2.03111 -0.63427,19.70207 -0.84745,19.91526 -0.91351,0.9135 -1.27119,5.49641 -1.27119,6.77966 0,9.89662 4.35555,29.30624 2.9661,33.47457 -0.0451,0.13533 -5.20521,0.15163 -5.50847,0 -0.23946,-0.11972 -1.61284,-0.36901 -1.69492,-0.42373 -1.90658,-1.27105 -0.0595,-5.2038 -0.84746,-6.77966 -3.86465,-7.72931 -2.54237,-37.62172 -2.54237,-48.72881 0,-2.25428 1.12666,-10.31402 -0.42373,-11.86441 -1.3681,-1.3681 -9.08348,0.59584 -10.59322,0.84746 -2.80491,0.46749 -5.27365,-0.84746 -8.05085,-0.84746 -7.31734,0 -14.74755,-4.49063 -17.79661,-2.9661 -0.0915,0.0458 -0.42372,10.93774 -0.42372,11.86441 0,11.36003 2.4809,22.99773 4.66101,33.8983 1.12666,5.63329 0.42373,13.46633 0.42373,19.0678 0,1.34854 1.08643,6.54069 0.84746,6.77966 -0.0754,0.0754 -7.99131,0.85937 -8.05085,0.84746 -0.43797,-0.0876 -1.07144,-0.0242 -1.27119,-0.42373 -0.9252,-1.8504 0.3361,-5.61053 0,-7.62712 -0.386,-2.31604 -1.27118,-4.84093 -1.27118,-7.20339 0,-2.10766 -0.79227,-4.86397 -1.27119,-6.77966 -1.0878,-4.35121 -1.22603,-31.53655 0,-36.44068 1.8463,-7.38517 -2.06422,-15.73238 3.81356,-21.61017 z"
       id="path3552"
       inkscape:connector-curvature="0" />
  </g>
  <g
     inkscape:groupmode="layer"
     id="layer41"
     inkscape:label="face">
    <path
       style="fill:#f5f5f5;stroke:#000000;stroke-width:1px;stroke-linecap:butt;stroke-linejoin:miter;stroke-opacity:1"
       d="m 106.35593,105.50847 c -1.15055,0.0255 -2.11864,0.41491 -2.11864,4.23729 0,6.04516 8.29175,9.50486 12.28813,5.50848 2.01345,-2.01345 -4.45394,-16.890206 -10.16949,-9.74577 z"
       id="path3555"
       inkscape:connector-curvature="0" />
    <path
       style="fill:#f5f5f5;stroke:#000000;stroke-width:1px;stroke-linecap:butt;stroke-linejoin:miter;stroke-opacity:1"
       d="m 121.18644,100.42373 c -5.50014,2.85871 -0.65974,13.51239 4.23729,12.28813 3.52713,-0.88178 3.62561,-8.66252 1.27119,-11.01694 -1.37526,-1.37526 -7.9596,-1.27119 -3.38984,-1.27119"
       id="path3557"
       inkscape:connector-curvature="0" />
    <path
       style="fill:none;stroke:#000000;stroke-width:1px;stroke-linecap:butt;stroke-linejoin:miter;stroke-opacity:1"
       d="m 118.64407,125 c -2.68639,-0.27928 -9.86594,7.35517 -5.93221,9.32203 4.83272,2.41636 7.95738,-5.27169 5.93221,-9.32203 z"
       id="path3559"
       inkscape:connector-curvature="0" />
    <path
       style="fill:none;stroke:#000000;stroke-width:1px;stroke-linecap:butt;stroke-linejoin:miter;stroke-opacity:1"
       d="m 118.22034,110.59322 c 2.12063,1.16434 6.71408,8.05085 5.9322,8.05085 -1.96215,0 -4.18149,2.59816 -5.9322,0.84746 -1.45161,-1.45162 0,-8.84367 0,-8.89831 z"
       id="path3561"
       inkscape:connector-curvature="0" />
    <path
       style="fill:none;stroke:#000000;stroke-width:1px;stroke-linecap:butt;stroke-linejoin:miter;stroke-opacity:1"
       d="m 109.74576,108.89831 1.27119,0"
       id="path3563"
       inkscape:connector-curvature="0" />
    <path
       style="fill:none;stroke:#000000;stroke-width:1px;stroke-linecap:butt;stroke-linejoin:miter;stroke-opacity:1"
       d="m 123.30508,104.66102 0.42373,1.27118"
       id="path3565"
       inkscape:connector-curvature="0" />
  </g>
  <g
     inkscape:groupmode="layer"
     id="layer42"
     inkscape:label="hair">
    <path
       style="fill:#8b4513;stroke:#000000;stroke-width:1px;stroke-linecap:butt;stroke-linejoin:miter;stroke-opacity:1"
       d="m 115.67797,80.084746 c -8.3073,4.410151 -4.07574,11.864407 -16.949156,11.864407 -5.045398,-1.180816 -6.771324,4.654763 -10.169492,7.203389 -5.484525,4.113398 -15.93762,3.895598 -17.79661,2.966098 -1.151715,-0.57585 -3.219038,-2.883953 -2.542373,-4.237284 1.206205,-2.412409 12.157807,-14.70018 14.40678,-16.949153 2.067184,-2.067184 5.850598,-2.884497 7.627118,-4.661017 2.828942,-2.828941 17.459823,-3.770087 21.610173,-1.694915 3.07795,1.538977 1.48144,3.694601 3.81356,5.508475 3.888,3.024 8.8391,3.271419 11.44067,8.474576 1.67389,3.347775 -9.32203,6.562246 -9.32203,-3.813559 0,-1.046945 -0.17587,-1.423051 -2.11864,-4.661017 z"
       id="path3568"
       inkscape:connector-curvature="0" />
  </g>
</svg>
