<?xml version="1.0" encoding="UTF-8" standalone="no"?>
<!-- Created with Inkscape (http://www.inkscape.org/) -->

<svg
   xmlns:dc="http://purl.org/dc/elements/1.1/"
   xmlns:cc="http://creativecommons.org/ns#"
   xmlns:rdf="http://www.w3.org/1999/02/22-rdf-syntax-ns#"
   xmlns:svg="http://www.w3.org/2000/svg"
   xmlns="http://www.w3.org/2000/svg"
   xmlns:sodipodi="http://sodipodi.sourceforge.net/DTD/sodipodi-0.dtd"
   xmlns:inkscape="http://www.inkscape.org/namespaces/inkscape"
   width="300"
   height="300"
   id="svg2"
   version="1.1"
   inkscape:version="0.48.0 r9654"
   sodipodi:docname="Page1.svg">
  <defs
     id="defs4" />
  <sodipodi:namedview
     id="base"
     pagecolor="#ffffff"
     bordercolor="#666666"
     borderopacity="1.0"
     inkscape:pageopacity="0.0"
     inkscape:pageshadow="2"
     inkscape:zoom="1.7866667"
     inkscape:cx="82.276119"
     inkscape:cy="150"
     inkscape:document-units="px"
     inkscape:current-layer="layer10"
     showgrid="false"
     fit-margin-top="0"
     fit-margin-left="0"
     fit-margin-right="0"
     fit-margin-bottom="0"
     gridtolerance="5"
     inkscape:window-width="1147"
     inkscape:window-height="756"
     inkscape:window-x="0"
     inkscape:window-y="22"
     inkscape:window-maximized="0" />
  <metadata
     id="metadata7">
    <rdf:RDF>
      <cc:Work
         rdf:about="">
        <dc:format>image/svg+xml</dc:format>
        <dc:type
           rdf:resource="http://purl.org/dc/dcmitype/StillImage" />
        <dc:title />
      </cc:Work>
    </rdf:RDF>
  </metadata>
  <g
     inkscape:groupmode="layer"
     id="layer10"
     inkscape:label="background">
    <path
       style="fill:#fffacd;stroke:#000000;stroke-width:1px;stroke-linecap:butt;stroke-linejoin:miter;stroke-opacity:1"
       d="M 7.2761194,11.753731 C 82.626922,5.729014 158.72687,8.9552239 234.51493,8.9552239 c 13.29056,0 49.57358,-7.5159701 57.08955,0 1.83111,1.8311121 -0.0659,20.9065821 -1.11941,24.0671641 -4.82698,14.480952 -3.66083,135.265572 -1.6791,151.119402 0.63239,5.05913 1.59175,106.99034 0.5597,108.02239 -2.78202,2.78202 -104.65955,4.10602 -111.9403,1.6791 -26.6215,-8.87383 -95.633823,5.72398 -129.850743,-1.1194 -9.604944,-1.92099 -30.407265,4.29423 -37.5,-2.79851 -5.7249908,-5.72499 -2.2388061,-30.66246 -2.2388061,-39.7388 0,-30.55728 8.5790031,-89.19454 3.3582091,-115.29851 C 7.5063147,116.44948 1.6627225,22.980525 7.2761194,11.753731 z"
       id="path5397"
       inkscape:connector-curvature="0" />
  </g>
  <g
     inkscape:groupmode="layer"
     id="layer7"
     inkscape:label="Shoes">
    <path
       style="fill:#800000;stroke:#000000;stroke-width:1px;stroke-linecap:butt;stroke-linejoin:miter;stroke-opacity:1"
       d="m 105.71429,267.14286 c 3.03387,12.85321 -23.571433,12.70936 -23.571433,15.71428 0,2.30588 1.99263,5.56406 3.571429,7.14286 1.250883,1.25088 4.834783,0.1759 5.714286,0 3.638383,-0.72768 26.132558,-3.9897 27.857138,-5.71429 6.66372,-6.66371 4.33385,-20.72391 -13.57142,-17.14285 z"
       id="path3011"
       inkscape:connector-curvature="0" />
    <path
       style="fill:#800000;stroke:#000000;stroke-width:1px;stroke-linecap:butt;stroke-linejoin:miter;stroke-opacity:1"
       d="m 151.42857,267.14286 c -1.78486,5.92641 -0.273,11.29207 4.28572,13.57143 7.12053,3.56026 51.19,1.30928 30,-9.28572 -2.85794,-1.42897 -5.29696,2.70867 -9.28572,0.71429 -4.42619,-2.2131 -3.33314,-8.57143 -9.28571,-8.57143 -5.53274,0 -8.39411,3.57143 -15.71429,3.57143 z"
       id="path3013"
       inkscape:connector-curvature="0" />
  </g>
  <g
     inkscape:groupmode="layer"
     id="layer5"
     inkscape:label="Legs">
    <path
       style="fill:#b8860b;stroke:#000000;stroke-width:1px;stroke-linecap:butt;stroke-linejoin:miter;stroke-opacity:1"
       d="m 103.57143,203.57143 c -1.01686,3.24134 -0.71429,6.63919 -0.71429,10 0,7.78155 4.78754,17.06595 2.14286,25 -2.46994,7.40982 -3.57143,18.11853 -3.57143,26.42857 0,1.8078 -0.88153,6.97561 -0.71428,7.14286 0.53388,0.53388 2.08011,-0.71429 2.85714,-0.71429 5.89295,0 13.6238,-1.41548 19.28571,0 0.91021,0.22755 4.22999,2.91287 5,2.14286 3.08436,-3.08436 5.30538,-46.73395 6.42857,-47.85714 3.11458,-3.11458 7.55409,38.37653 8.57143,41.42857 0.44828,1.34483 0.85017,5.06794 2.14286,5.71428 5.1902,2.5951 17.56863,-3.07002 21.42857,-5 0.8901,-0.44505 12.85714,-4.40609 12.85714,-2.85714 0,0.14798 -2.63386,-13.34815 -3.57142,-14.28571 -5.49759,-5.49759 -6.99258,-28.98517 -11.42858,-37.85715 -1.65144,-3.30289 -0.12255,-11.55113 -2.85714,-14.28571 -3.35303,-3.35303 -38.91944,4.92674 -42.85714,5.71428 -5.16944,1.03389 -11.59234,-0.14634 -15,-0.71428 z"
       id="path2997"
       inkscape:connector-curvature="0" />
  </g>
  <g
     inkscape:groupmode="layer"
     id="layer6"
     inkscape:label="Hands"
     style="display:inline">
    <path
       style="fill:#ffe4e1;stroke:#000000;stroke-width:1px;stroke-linecap:butt;stroke-linejoin:miter;stroke-opacity:1"
       d="m 222.14286,109.28571 c -0.47678,-3.8821 -2.29321,-13.421077 0.71428,-16.428567 6.02071,-6.020709 5.59724,7.376957 6.42857,5.714286 C 242.69874,71.745383 253.80461,103.09769 230,115"
       id="path3970"
       inkscape:connector-curvature="0" />
    <path
       style="fill:#ffe4e1;stroke:#000000;stroke-width:1px;stroke-linecap:butt;stroke-linejoin:miter;stroke-opacity:1"
       d="m 62.142857,198.57143 c -0.833692,4.26019 -8.404299,19.34142 0,22.14286 3.051229,1.01707 11.428572,-3.08954 11.428572,-9.28572 0,-0.95238 0,-3.80952 0,-2.85714 0,12.16577 17.372277,-21.52034 -11.428572,-10 z"
       id="path3972"
       inkscape:connector-curvature="0" />
  </g>
  <g
     inkscape:groupmode="layer"
     id="layer3"
     inkscape:label="Body">
    <path
       style="fill:#ff0000;stroke:#000000;stroke-width:1px;stroke-linecap:butt;stroke-linejoin:miter;stroke-opacity:1"
       d="M 98.571429,122.85714 C 70.431542,118.40744 53.315037,195.2015 57.857143,204.28571 58.597106,205.76564 75.351951,200 77.142857,200 c 2.736668,0 5.963845,-19.53527 10,-23.57143 2.384331,-2.38433 4.897727,-3.46915 5.714286,-4.28571 1.314924,-1.31493 4.285714,-5.43101 4.285714,-3.57143 0,1.63189 -4.438911,13.01034 -5.714285,14.28571 -2.209888,2.20989 -1.674785,15.73864 -2.857143,19.28572 C 87.771902,204.54144 86.884052,215 86.428572,215 c -1.190477,0 4.761904,0 3.571428,0 -0.685395,0 7.225577,-0.37093 17.85714,-2.14286 15.67232,-2.61205 38.3198,-8.99148 54.28572,-5 8.92801,2.23201 20,1.1221 20,1.42857 0,0.27858 -1.42857,-7.54797 -1.42857,-14.28571 0,-5.91874 2.94986,-24.68922 3.57142,-25 11.63504,-5.81752 27.11287,-7.82715 37.14286,-17.85714 3.37103,-3.37103 6.1446,-9.00175 8.57143,-11.42857 3.36929,-3.36929 1.89024,-12.22561 3.57143,-16.42858 1.14119,-2.85297 6.51289,-13.40278 5,-16.42857 -1.4583,-2.9166 -11.46802,-0.0394 -13.57143,-2.14285 -1.12938,-1.12939 -3.15633,-3.27225 -4.28571,-2.14286 -3.45357,3.45356 -7.54619,22.23523 -10.71429,28.57143 -4.25732,8.51464 -27.48303,10.1247 -30,9.28571 -5.85417,-1.95139 -14.95538,-12.00899 -15.71429,-14.28571"
       id="path2991"
       inkscape:connector-curvature="0" />
  </g>
  <g
     inkscape:groupmode="layer"
     id="layer2"
     inkscape:label="Head">
    <path
       style="fill:#ffe4e1;stroke:#000000;stroke-width:1px;stroke-linecap:butt;stroke-linejoin:miter;stroke-opacity:1"
       d="M 113.57143,40 C 103.07869,43.328158 88.703081,55.056023 86.428572,66.428571 77.998841,108.57722 107.52728,156.23636 154.28571,132.85714 159.78058,130.10971 169.37495,125.2233 172.85714,120 209.19879,65.487534 145.2884,29.427676 113.57143,40 z"
       id="path2988"
       inkscape:connector-curvature="0" />
  </g>
  <g
     inkscape:groupmode="layer"
     id="layer8"
     inkscape:label="Face">
    <path
       style="fill:#f5f5f5;stroke:#000000;stroke-width:1px;stroke-linecap:butt;stroke-linejoin:miter;stroke-opacity:1"
       d="m 121.42857,81.428571 c -5.65657,-1.068404 -8.56719,2.854317 -12.85714,5.714286 -13.54345,9.028966 24.19827,22.638523 12.85714,-5.714286 z"
       id="path3016"
       inkscape:connector-curvature="0" />
    <path
       style="fill:#f5f5f5;stroke:#000000;stroke-width:1px;stroke-linecap:butt;stroke-linejoin:miter;stroke-opacity:1"
       d="m 152.14286,82.142857 c -26.44115,3.504871 9.28571,30.082473 9.28571,13.571428 0,-3.12012 1.26851,-4.445777 -0.71428,-6.428571 -3.28309,-3.283086 -2.89006,-6.006583 -8.57143,-7.142857 z"
       id="path3020"
       inkscape:connector-curvature="0" />
    <path
       style="fill:none;stroke:#000000;stroke-width:1px;stroke-linecap:butt;stroke-linejoin:miter;stroke-opacity:1"
       d="M 129.28571,90.714285 C 129.63278,95.445587 125,99.5417 125,104.28571 c 0,5.24104 0.6806,7.85715 2.85714,7.85715 25.85818,0 10.31689,-28.539225 1.42857,-21.428575 z"
       id="path3022"
       inkscape:connector-curvature="0" />
    <path
       style="fill:none;stroke:#000000;stroke-width:1px;stroke-linecap:butt;stroke-linejoin:miter;stroke-opacity:1"
       d="m 117.85714,120.71429 c 10.69959,18.10679 46.54906,-2.85715 17.14286,-2.85715 -7.41461,0 -11.36518,-0.99464 -17.14286,2.85715 z"
       id="path3024"
       inkscape:connector-curvature="0" />
    <path
       style="fill:none;stroke:#000000;stroke-width:1px;stroke-linecap:butt;stroke-linejoin:miter;stroke-opacity:1"
       d="m 115,90 0,0.714285"
       id="path3026"
       inkscape:connector-curvature="0" />
    <path
       style="fill:none;stroke:#000000;stroke-width:1px;stroke-linecap:butt;stroke-linejoin:miter;stroke-opacity:1"
       d="m 150.71429,90 1.42857,0.714285"
       id="path3028"
       inkscape:connector-curvature="0" />
  </g>
  <g
     inkscape:groupmode="layer"
     id="layer9"
     inkscape:label="Hair">
    <path
       style="fill:#a0522d;stroke:#000000;stroke-width:1px;stroke-linecap:butt;stroke-linejoin:miter;stroke-opacity:1"
       d="m 145.71429,42.142857 c -0.56034,3.115817 -2.45285,3.16713 -3.57143,4.285714 -6.3189,6.318899 -22.75509,4.234689 -30,7.857143 C 103.01243,58.850928 98.276696,65.294732 90.714286,72.857143 85.983153,77.588275 90.721722,84.278278 85,90 c -0.391427,0.391427 -2.142857,1.43746 -2.142857,1.428571 0,-31.261283 -1.691081,-43.083031 30.714287,-59.285714 6.36707,-3.183534 23.54403,0.934113 28.57143,4.285714 1.86894,1.24596 1.41166,5.097211 3.57143,5.714286 6.97033,1.991523 16.23906,-4.475221 24.28571,3.571428 8.95057,8.950569 8.1844,21.510386 -3.57143,18.571429 C 160.08504,62.69983 152.31176,46.10134 145.71429,42.142857 z"
       id="path3031"
       inkscape:connector-curvature="0" />
  </g>
</svg>
