<?xml version="1.0" encoding="UTF-8" standalone="no"?>
<!-- Created with Inkscape (http://www.inkscape.org/) -->

<svg
   xmlns:dc="http://purl.org/dc/elements/1.1/"
   xmlns:cc="http://creativecommons.org/ns#"
   xmlns:rdf="http://www.w3.org/1999/02/22-rdf-syntax-ns#"
   xmlns:svg="http://www.w3.org/2000/svg"
   xmlns="http://www.w3.org/2000/svg"
   xmlns:sodipodi="http://sodipodi.sourceforge.net/DTD/sodipodi-0.dtd"
   xmlns:inkscape="http://www.inkscape.org/namespaces/inkscape"
   width="300"
   height="300"
   id="svg2"
   version="1.1"
   inkscape:version="0.48.0 r9654"
   sodipodi:docname="Page2.svg">
  <defs
     id="defs4" />
  <sodipodi:namedview
     id="base"
     pagecolor="#ffffff"
     bordercolor="#666666"
     borderopacity="1.0"
     inkscape:pageopacity="0.0"
     inkscape:pageshadow="2"
     inkscape:zoom="1.7866667"
     inkscape:cx="82.276119"
     inkscape:cy="150"
     inkscape:document-units="px"
     inkscape:current-layer="layer12"
     showgrid="false"
     fit-margin-top="0"
     fit-margin-left="0"
     fit-margin-right="0"
     fit-margin-bottom="0"
     gridtolerance="5"
     inkscape:window-width="1153"
     inkscape:window-height="756"
     inkscape:window-x="39"
     inkscape:window-y="0"
     inkscape:window-maximized="0" />
  <metadata
     id="metadata7">
    <rdf:RDF>
      <cc:Work
         rdf:about="">
        <dc:format>image/svg+xml</dc:format>
        <dc:type
           rdf:resource="http://purl.org/dc/dcmitype/StillImage" />
        <dc:title />
      </cc:Work>
    </rdf:RDF>
  </metadata>
  <g
     inkscape:groupmode="layer"
     id="layer12"
     inkscape:label="Layer#2">
    <path
       style="fill:#fffacd;stroke:#000000;stroke-width:1px;stroke-linecap:butt;stroke-linejoin:miter;stroke-opacity:1"
       d="M 8.9552239,7.8358209 C 26.937421,6.8485934 131.83753,14.80426 134.88806,11.753731 c 13.12218,-13.122184 101.20902,-1.612996 112.5,0 8.03824,1.14832 37.34888,-4.6287359 43.09701,1.119403 4.57031,4.570305 1.24979,42.146157 -1.1194,49.253732 -4.65064,13.951924 -0.5597,105.501184 -0.5597,127.052234 0,22.20813 -4.53761,65.86479 2.23881,86.19403 0.53085,1.59256 0.87857,16.63161 -0.55971,17.35075 -10.43546,5.21773 -99.51971,0.13337 -108.58208,-1.6791 -38.44851,-7.68971 -138.58451,9.9055 -169.589557,-5.59702 -0.01387,-0.007 0,-45.33142 0,-49.81343 0,-31.3449 -11.47896753,-166.221171 -1.679105,-185.820897 C 17.66146,35.759169 3.0332604,17.70576 8.9552239,7.8358209 z"
       id="path5747"
       inkscape:connector-curvature="0" />
  </g>
  <g
     inkscape:groupmode="layer"
     id="layer14"
     inkscape:label="Shoes">
    <path
       style="fill:#8b4513;stroke:#000000;stroke-width:1px;stroke-linecap:butt;stroke-linejoin:miter;stroke-opacity:1"
       d="m 80.714286,257.14286 c -0.350717,13.11805 -4.249146,15 13.571428,15 5.536918,0 11.380366,-2.14286 17.142856,-2.14286 0.95238,0 3.80953,0 2.85714,0 -2.47543,0 8.16876,-11.77054 -18.571424,-2.85714 -1.435478,0.47849 -3.322361,-6.17951 -4.285714,-7.14286 -0.384519,-0.38452 -11.867131,-0.93573 -10.714286,-2.85714 0.714286,-1.19048 2.380952,1.42857 0,0 z"
       id="path3067"
       inkscape:connector-curvature="0" />
    <path
       style="fill:#8b4513;stroke:#000000;stroke-width:1px;stroke-linecap:butt;stroke-linejoin:miter;stroke-opacity:1"
       d="m 47.142857,260 c -0.520198,0.11801 0.413733,15 0,15 -2.12013,0 9.388804,-2.10849 15.714286,0 1.819551,0.60652 9.985939,5.01406 11.428571,3.57143 8.01412,-8.01412 -22.65541,-15 -25,-15"
       id="path3069"
       inkscape:connector-curvature="0" />
  </g>
  <g
     inkscape:groupmode="layer"
     id="layer13"
     inkscape:label="Legs">
    <path
       style="fill:#daa520;stroke:#000000;stroke-width:1px;stroke-linecap:butt;stroke-linejoin:miter;stroke-opacity:1"
       d="m 48.571429,202.85714 c -4.437531,13.66699 -10.057431,62.85715 -6.428572,62.85715 5.483571,0 19.777485,1.89697 25,-0.71429 1.637586,-0.81879 4.285715,-27.02361 4.285715,-30 0,-14.45377 2.918683,22.91868 6.428571,26.42857 0.972497,0.9725 10.14836,0.71429 11.428571,0.71429 2.650223,0 7.991529,0.5799 8.571429,0 0.70916,-0.70916 -0.397876,-7.30579 -0.714286,-8.57143 C 94.773373,244.09349 89.855655,200.56994 85,195.71429 c -8.749797,-8.7498 -24.294785,9.56961 -36.428571,7.14285 z"
       id="path3064"
       inkscape:connector-curvature="0" />
  </g>
  <g
     inkscape:groupmode="layer"
     id="layer11"
     inkscape:label="Layer">
    <path
       style="fill:#ff0000;stroke:#000000;stroke-width:1px;stroke-linecap:butt;stroke-linejoin:miter;stroke-opacity:1"
       d="m 84.285714,124.28571 c 18.650976,9.83902 7.210157,29.07006 31.428576,37.14286 3.29199,1.09733 21.44567,-7.84003 23.57142,-5.71428 8.71924,8.71923 -1.82547,16.79896 -7.14285,18.57142 -27.05027,9.01676 -30.72476,3.56096 -44.285717,-10 -0.01933,-0.0193 2.721027,10.03371 4.285714,17.85715 2.931324,14.65661 13.015723,22.14285 -5.714285,22.14285 -10.159292,0 -44.624418,10.37559 -51.428572,3.57143 -3.149298,-3.1493 2.730555,-27.98373 1.428571,-29.28571 -1.819728,-1.81973 -19.285714,2.4049 -19.285714,-5 0,-37.78009 34.023686,-62.53338 67.142857,-49.28572 z"
       id="path3058"
       inkscape:connector-curvature="0" />
    <path
       style="fill:none;stroke:#000000;stroke-width:1px;stroke-linecap:butt;stroke-linejoin:miter;stroke-opacity:1"
       d="m 42.857143,155.71429 c -0.664405,13.46952 12.554124,3.98269 16.428571,7.85714 C 61.205681,165.49139 60,166.60002 60,170.71429 c 0,12.15302 -17.629927,7.85714 -24.285714,7.85714"
       id="path3060"
       inkscape:connector-curvature="0" />
  </g>
  <g
     inkscape:groupmode="layer"
     id="layer21"
     inkscape:label="hands">
    <path
       style="fill:#ffe4e1;stroke:#000000;stroke-width:1px;stroke-linecap:butt;stroke-linejoin:miter;stroke-opacity:1"
       d="m 59.285714,165 c 8.285794,-11.11152 11.08325,0.71429 7.142857,0.71429 -0.602106,0 5.962669,-3.07467 7.142858,-0.71429 0.02845,0.0569 1.679393,8.78407 0,12.14286 -2.311307,4.62261 -12.67359,-1.95931 -15,-4.28572"
       id="path3134"
       inkscape:connector-curvature="0" />
    <path
       style="fill:#ffe4e1;stroke:#000000;stroke-width:1px;stroke-linecap:butt;stroke-linejoin:miter;stroke-opacity:1"
       d="m 138.57143,155 c 2.59158,-3.63825 12.14286,-9.42479 12.14286,-7.14286 0,1.1381 -2.35494,5 -0.71429,5 0.71429,0 1.42857,0 2.14286,0 12.91684,0 3.89722,4.61151 5,5.71429 10.23319,10.2332 -8.31986,13.10871 -15.71429,5.71428"
       id="path3136"
       inkscape:connector-curvature="0" />
  </g>
  <g
     inkscape:groupmode="layer"
     id="layer17"
     inkscape:label="HerLegs">
    <path
       style="fill:#ffe4e1;stroke:#000000;stroke-width:1px;stroke-linecap:butt;stroke-linejoin:miter;stroke-opacity:1"
       d="m 217.14286,237.14286 c 5.77792,30.06642 -20,27.68103 -20,28.57143 0,2.12579 23.86619,6.55332 25.71428,2.85714 3.63296,-7.26591 5.07974,-32.10299 9.28572,-30 3.48017,1.74008 -7.34231,36.42857 11.42857,36.42857 1.42857,0 3.27556,1.01015 4.28571,0 4.88284,-4.88283 -6.51173,-9.45203 -8.57143,-13.57143 -6.37924,-12.75848 13.32404,-22.74042 -7.14285,-27.85714 -5.90497,-1.47624 -10.00558,-0.42411 -15,3.57143 z"
       id="path3078"
       inkscape:connector-curvature="0" />
  </g>
  <g
     inkscape:groupmode="layer"
     id="layer18"
     inkscape:label="HerHands">
    <path
       style="fill:none;stroke:#000000;stroke-width:1px;stroke-linecap:butt;stroke-linejoin:miter;stroke-opacity:1"
       d="m 185.71429,210 c -4.82032,4.85308 -7.79344,12.92085 -7.14286,13.57143 1.21405,1.21405 2.56878,-2.85714 4.28571,-2.85714 2.15605,0 -2.23884,4.90401 -0.71428,6.42857 1.50332,1.50332 2.36345,-2.85715 3.57143,-2.85715 0.61993,0 -2.53357,6.62393 5,2.85715 8.08189,-4.04095 0.2037,-15.40829 -5,-17.14286 z"
       id="path3081"
       inkscape:connector-curvature="0" />
    <path
       style="fill:#ffe4e1;stroke:#000000;stroke-width:1px;stroke-linecap:butt;stroke-linejoin:miter;stroke-opacity:1"
       d="m 273.57143,214.28571 c -1.3709,-0.51655 9.49581,5.50419 7.14286,7.85715 -1.17852,1.17851 -3.33334,0 -5,0 -1.44828,0 1.36197,2.99033 0.71428,4.28571 -2.39862,4.79724 -12.22817,3.48612 -12.85714,2.85714 -4.87494,-4.87494 4.56708,-11.74024 10,-15 z"
       id="path3085"
       inkscape:connector-curvature="0" />
  </g>
  <g
     inkscape:groupmode="layer"
     id="layer16"
     inkscape:label="HerBody">
    <path
       style="fill:#ff4500;stroke:#000000;stroke-width:1px;stroke-linecap:butt;stroke-linejoin:miter;stroke-opacity:1"
       d="m 247.14286,142.14286 c 25.12109,6.28356 14.98831,48.55974 30,63.57143 9.05575,9.05575 -8.53817,16.4452 -15.71429,12.85714 -6.03853,-3.01927 -4.46151,-20.44504 -9.28571,-22.85714 -3.30166,-1.65084 -3.79474,6.69623 -1.42857,11.42857 3.08397,6.16795 3.21577,15.72023 5,22.85714 0.41109,1.64437 6.21064,11.6465 4.28571,13.57143 -4.68656,4.68656 -30.9893,-1.42857 -37.14286,-1.42857 -2.04888,0 -25.71428,1.3266 -25.71428,-1.42857 0,-7.60124 22.58686,-35.54057 17.85714,-45 -1.56164,-3.12328 -16.67824,22.26769 -17.85714,22.85714 -0.0877,0.0439 -15.48583,-7.40022 -15.71429,-7.85714 C 180.96188,209.7809 184.61312,201.16063 185,200 c 5.92123,-17.7637 35.2542,-79.36807 62.14286,-57.85714 z"
       id="path3075"
       inkscape:connector-curvature="0" />
  </g>
  <g
     inkscape:groupmode="layer"
     id="layer22"
     inkscape:label="HerHead">
    <path
       style="fill:#ffe4e1;stroke:#000000;stroke-width:1px;stroke-linecap:butt;stroke-linejoin:miter;stroke-opacity:1"
       d="m 218.57143,130 c 34.47948,49.00898 80.30809,-31.98881 50,-47.142857 -39.50258,-19.751288 -58.94958,24.768897 -50,47.142857 z"
       id="path3144"
       inkscape:connector-curvature="0" />
  </g>
  <g
     inkscape:groupmode="layer"
     id="layer29"
     inkscape:label="HerFace">
    <path
       style="fill:#f5f5f5;stroke:#000000;stroke-width:1px;stroke-linecap:butt;stroke-linejoin:miter;stroke-opacity:1"
       d="m 236.44068,104.23729 c -0.75676,-0.56724 -3.43843,-2.11865 -6.35593,-2.11865 -15.09974,0 10.31965,21.93728 6.35593,2.11865 z"
       id="path3422"
       inkscape:connector-curvature="0" />
    <path
       style="fill:#f5f5f5;stroke:#000000;stroke-width:1px;stroke-linecap:butt;stroke-linejoin:miter;stroke-opacity:1"
       d="m 257.62712,104.66102 c -7.94727,-5.616001 -10.79701,4.25343 -9.74576,6.35593 1.75435,3.50871 8.1522,2.44102 9.32203,1.27119 1.42737,-1.42737 0.45883,-7.45161 0.42373,-7.62712 z"
       id="path3424"
       inkscape:connector-curvature="0" />
    <path
       style="fill:none;stroke:#000000;stroke-width:1px;stroke-linecap:butt;stroke-linejoin:miter;stroke-opacity:1"
       d="m 230.9322,106.77966 0.42373,0.42373"
       id="path3426"
       inkscape:connector-curvature="0" />
    <path
       style="fill:none;stroke:#000000;stroke-width:1px;stroke-linecap:butt;stroke-linejoin:miter;stroke-opacity:1"
       d="m 252.11864,108.05085 0.42373,0.42373"
       id="path3430"
       inkscape:connector-curvature="0" />
    <path
       style="fill:none;stroke:#000000;stroke-width:1px;stroke-linecap:butt;stroke-linejoin:miter;stroke-opacity:1"
       d="m 227.11864,95.338983 c 0.52956,2.965457 1.09171,3.763622 1.27119,4.661017"
       id="path3432"
       inkscape:connector-curvature="0" />
    <path
       style="fill:none;stroke:#000000;stroke-width:1px;stroke-linecap:butt;stroke-linejoin:miter;stroke-opacity:1"
       d="m 232.20339,95.338983 c -0.29045,1.245594 -0.28249,2.542373 -0.42373,3.813559"
       id="path3434"
       inkscape:connector-curvature="0" />
    <path
       style="fill:none;stroke:#000000;stroke-width:1px;stroke-linecap:butt;stroke-linejoin:miter;stroke-opacity:1"
       d="m 237.28814,97.033898 c -0.30373,1.49728 -1.46208,2.733259 -2.54238,3.813562"
       id="path3436"
       inkscape:connector-curvature="0" />
    <path
       style="fill:none;stroke:#000000;stroke-width:1px;stroke-linecap:butt;stroke-linejoin:miter;stroke-opacity:1"
       d="m 247.0339,97.881356 c 1.59329,4.071444 0.98842,1.835456 2.11864,4.661014"
       id="path3438"
       inkscape:connector-curvature="0" />
    <path
       style="fill:none;stroke:#000000;stroke-width:1px;stroke-linecap:butt;stroke-linejoin:miter;stroke-opacity:1"
       d="m 251.27119,95.762712 c -0.0465,3.540175 0.0848,2.627355 0.42373,4.661018"
       id="path3440"
       inkscape:connector-curvature="0" />
    <path
       style="fill:none;stroke:#000000;stroke-width:1px;stroke-linecap:butt;stroke-linejoin:miter;stroke-opacity:1"
       d="m 255.50847,97.033898 c -1.23242,2.361406 -1.00588,2.910762 -1.27118,4.237292"
       id="path3442"
       inkscape:connector-curvature="0" />
    <path
       style="fill:none;stroke:#000000;stroke-width:1px;stroke-linecap:butt;stroke-linejoin:miter;stroke-opacity:1"
       d="m 261.86441,99.152542 c -2.48835,0.934878 -3.24474,2.397288 -4.66102,3.813558"
       id="path3444"
       inkscape:connector-curvature="0" />
    <path
       style="fill:none;stroke:#000000;stroke-width:1px;stroke-linecap:butt;stroke-linejoin:miter;stroke-opacity:1"
       d="m 240.25424,99.152542 c -1.75165,1.018688 -1.48843,1.786108 -2.11865,2.542378"
       id="path3446"
       inkscape:connector-curvature="0" />
    <path
       style="fill:none;stroke:#000000;stroke-width:1px;stroke-linecap:butt;stroke-linejoin:miter;stroke-opacity:1"
       d="m 241.10169,108.05085 c -10.55161,8.99812 -3.23062,18.06113 2.96611,11.8644 1.89717,-1.89717 1.73836,-11.8644 -2.96611,-11.8644 z"
       id="path3448"
       inkscape:connector-curvature="0" />
    <path
       style="fill:none;stroke:#000000;stroke-width:1px;stroke-linecap:butt;stroke-linejoin:miter;stroke-opacity:1"
       d="m 228.81356,127.11864 c 0.89139,3.09338 10.65228,9.66702 16.94915,1.27119"
       id="path3450"
       inkscape:connector-curvature="0" />
  </g>
  <g
     inkscape:groupmode="layer"
     id="layer25"
     inkscape:label="HerHair">
    <path
       style="fill:#ffd700;stroke:#000000;stroke-width:1px;stroke-linecap:butt;stroke-linejoin:miter;stroke-opacity:1"
       d="m 252.14286,81.428571 c 2.10544,11.741222 17.14285,8.984077 17.14285,15.714286 0,8.351143 -2.14285,23.314673 -2.14285,26.428573 C 267.14286,133.90482 265,139.40767 265,140 c 0,9.01741 3.14298,8.2856 10.71429,0.71429 4.34077,-4.34078 -5.74876,-4.93106 -4.28572,-7.85715 4.56736,-9.13471 16.81297,-57.142855 1.42857,-57.142855 -19.68107,0 -34.74529,-11.683275 -48.57143,2.142858 -10.16885,10.168855 -13.70668,35.270517 -20.71428,49.285717 -3.07775,6.1555 -6.1882,-3.33788 -7.85714,0 -1.86695,3.73389 6.63313,12.39771 11.42857,10 9.29968,-4.64984 4.1108,-31.96795 12.85714,-40.714289 10.13138,-10.131379 21.13904,-8.397712 32.14286,-15 z"
       id="path3184"
       inkscape:connector-curvature="0" />
  </g>
  <g
     inkscape:groupmode="layer"
     id="layer27"
     inkscape:label="Flask">
    <path
       style="fill:#808000;stroke:#000000;stroke-width:1px;stroke-linecap:butt;stroke-linejoin:miter;stroke-opacity:1"
       d="m 153.57143,147.85714 c 6.56695,2.91853 -12.62151,42.85715 -11.42857,42.85715 6.78994,0 20.14949,2.78239 25.71428,0 6.83462,-3.41731 -10.62457,-35.62457 -10.71428,-35.71429 -2.89441,-2.8944 7.63854,-17.36146 6.42857,-18.57143 -0.39362,-0.39362 -6.31114,-0.20793 -7.14286,0 -9.62111,2.40528 -4.93292,5.20122 -2.85714,11.42857 z"
       id="path3192"
       inkscape:connector-curvature="0" />
  </g>
  <g
     inkscape:groupmode="layer"
     id="layer28"
     inkscape:label="Layer#1"
     style="display:inline">
    <path
       style="fill:#f5f5f5;stroke:#000000;stroke-width:1px;stroke-linecap:butt;stroke-linejoin:miter;stroke-opacity:1"
       d="m 150.71429,138.92857 c 0.84758,5.46872 3.92857,10.63654 3.92857,13.92857 0,9.94992 -7.81992,11.42857 2.14285,11.42857 1.62875,0 2.39809,1.53049 3.92858,0 0.77207,-0.77207 -2.4633,-5.99802 -3.21429,-7.5 -2.46443,-4.92886 1.78064,-13.92349 4.64286,-16.78571 0.94542,-0.94542 -0.18422,-3.21429 0.71428,-3.21429 0.49085,0 -1.91941,-0.35714 -1.42857,-0.35714 0.0703,0 -5.11874,1.38089 -10.71428,2.5 z"
       id="path3195"
       inkscape:connector-curvature="0" />
    <path
       style="fill:#808000;stroke:#000000;stroke-width:1px;stroke-linecap:butt;stroke-linejoin:miter;stroke-opacity:1"
       d="m 161.07143,131.07143 c 0.0215,-0.86954 2.5,-0.87171 2.5,-3.57143 0,-8.38163 12.8972,3.57143 -2.5,3.57143 z"
       id="path3207"
       inkscape:connector-curvature="0" />
    <path
       style="fill:#808000;stroke:#000000;stroke-width:1px;stroke-linecap:butt;stroke-linejoin:miter;stroke-opacity:1"
       d="m 149.28571,133.21429 c -14.34574,-6.67851 -7.94404,-9.93006 0,0 z"
       id="path3209"
       inkscape:connector-curvature="0" />
    <path
       style="fill:#808000;stroke:#000000;stroke-width:1px;stroke-linecap:butt;stroke-linejoin:miter;stroke-opacity:1"
       d="m 151.42857,125.35714 c -1.09239,-2.75564 -3.79106,-1.64821 -5,-2.85714 -1.55219,-1.55219 6.48085,-5 4.28572,-5 -0.60703,0 0.35714,1.17869 0.35714,1.78571 0,2.13931 -1.32166,3.27343 0.35714,6.07143 z"
       id="path3213"
       inkscape:connector-curvature="0" />
    <path
       style="fill:#808000;stroke:#000000;stroke-width:1px;stroke-linecap:butt;stroke-linejoin:miter;stroke-opacity:1"
       d="m 157.85714,117.85714 c -4.0867,-6.97954 5.68409,-8.83796 4.28572,-4.64285 -0.51099,1.53296 -3.30753,2.19739 -4.28572,4.64285 z"
       id="path3215"
       inkscape:connector-curvature="0" />
  </g>
  <g
     inkscape:groupmode="layer"
     id="layer30"
     inkscape:label="words"
     style="display:inline">
    <path
       style="fill:#dcdcdc;stroke:#000000;stroke-width:1px;stroke-linecap:butt;stroke-linejoin:miter;stroke-opacity:1"
       d="m 157.27612,12.313433 c -1.7054,-0.601745 -4.84497,-0.752048 -6.15672,0.559701 -2.59858,2.59858 -0.80266,10.074627 -4.47761,10.074627 -6.52615,0 -17.59104,-1.438812 -22.94776,3.917911 -4.08757,4.087573 0.24492,12.558348 2.79851,15.11194 0.17478,0.174778 -4.21689,7.161334 -3.91791,8.955224 1.1585,6.951031 14.50495,16.064673 19.58955,16.791045 4.19257,0.598939 17.0648,2.667722 19.58955,-1.119403 0.44678,-0.670169 0.44611,-4.420816 0.5597,-4.477612 0.88506,-0.442527 10.9344,4.262668 14.55224,3.358209 11.50298,-2.875745 12.68986,-10.385024 21.26866,-8.955224 8.91543,1.485905 13.33972,0.18623 17.35074,-7.835821 1.53848,-3.076945 7.12475,4.008737 10.07463,2.238806 4.98627,-2.991761 9.31314,-18.433321 7.27612,-21.828358 -4.64295,-7.73826 -53.89298,-14.979254 -62.68657,-17.910448 -5.45031,-1.8167723 -6.45619,4.327874 -12.87313,1.119403 z"
       id="path5710"
       inkscape:connector-curvature="0" />
    <path
       style="fill:none;stroke:#000000;stroke-width:1px;stroke-linecap:butt;stroke-linejoin:miter;stroke-opacity:1"
       d="m 131.52985,28.544776 c 3.90735,9.453328 -1.80368,17.288637 7.83582,13.432836"
       id="path5712"
       inkscape:connector-curvature="0" />
    <path
       style="fill:none;stroke:#000000;stroke-width:1px;stroke-linecap:butt;stroke-linejoin:miter;stroke-opacity:1"
       d="m 139.92537,34.141791 c 0.52886,1.759723 1.55639,3.331262 2.23881,5.037313"
       id="path5714"
       inkscape:connector-curvature="0" />
    <path
       style="fill:none;stroke:#000000;stroke-width:1px;stroke-linecap:butt;stroke-linejoin:miter;stroke-opacity:1"
       d="m 138.80597,25.746269 c -0.88597,2.652701 0,4.697432 0,0 z"
       id="path5716"
       inkscape:connector-curvature="0" />
    <path
       style="fill:none;stroke:#000000;stroke-width:1px;stroke-linecap:butt;stroke-linejoin:miter;stroke-opacity:1"
       d="m 150,28.544776 c 0.61485,3.073309 1.20958,6.607612 1.6791,8.955224"
       id="path5718"
       inkscape:connector-curvature="0" />
    <path
       style="fill:none;stroke:#000000;stroke-width:1px;stroke-linecap:butt;stroke-linejoin:miter;stroke-opacity:1"
       d="m 146.64179,33.022388 c 3.81938,0.307449 9.25054,-2.337245 12.31343,-3.358209"
       id="path5720"
       inkscape:connector-curvature="0" />
    <path
       style="fill:none;stroke:#000000;stroke-width:1px;stroke-linecap:butt;stroke-linejoin:miter;stroke-opacity:1"
       d="m 163.99254,21.268657 c 0.003,5.355538 0.57447,10.678647 2.2388,15.671642"
       id="path5722"
       inkscape:connector-curvature="0" />
    <path
       style="fill:none;stroke:#000000;stroke-width:1px;stroke-linecap:butt;stroke-linejoin:miter;stroke-opacity:1"
       d="m 169.02985,22.947761 c 0.77146,4.433841 2.09952,8.679189 2.79851,12.873135"
       id="path5724"
       inkscape:connector-curvature="0" />
    <path
       style="fill:none;stroke:#000000;stroke-width:1px;stroke-linecap:butt;stroke-linejoin:miter;stroke-opacity:1"
       d="m 164.55224,30.223881 c 2.7877,-0.309541 5.12558,-1.26665 6.15672,-1.679105"
       id="path5726"
       inkscape:connector-curvature="0" />
    <path
       style="fill:none;stroke:#000000;stroke-width:1px;stroke-linecap:butt;stroke-linejoin:miter;stroke-opacity:1"
       d="m 174.06716,30.223881 c 10.18069,1.25529 -6.70015,8.955223 2.79851,8.955223"
       id="path5728"
       inkscape:connector-curvature="0" />
    <path
       style="fill:none;stroke:#000000;stroke-width:1px;stroke-linecap:butt;stroke-linejoin:miter;stroke-opacity:1"
       d="m 186.3806,21.828358 c -21.12351,4.181889 11.87427,17.324898 0.5597,2.238806"
       id="path5730"
       inkscape:connector-curvature="0" />
    <path
       style="fill:none;stroke:#000000;stroke-width:1px;stroke-linecap:butt;stroke-linejoin:miter;stroke-opacity:1"
       d="m 165.11194,52.052239 c 4.5719,-1.106571 8.25228,-4.113142 12.87313,-5.037314"
       id="path5732"
       inkscape:connector-curvature="0" />
    <path
       style="fill:none;stroke:#000000;stroke-width:1px;stroke-linecap:butt;stroke-linejoin:miter;stroke-opacity:1"
       d="m 170.14925,57.089552 c 3.46945,-1.42545 7.29973,-2.246676 10.63433,-3.358209"
       id="path5734"
       inkscape:connector-curvature="0" />
    <path
       style="fill:none;stroke:#000000;stroke-width:1px;stroke-linecap:butt;stroke-linejoin:miter;stroke-opacity:1"
       d="m 195.33582,38.619403 c 7.42048,-3.891581 1.4621,5.18583 4.47761,8.955224"
       id="path5736"
       inkscape:connector-curvature="0" />
    <path
       style="fill:none;stroke:#000000;stroke-width:1px;stroke-linecap:butt;stroke-linejoin:miter;stroke-opacity:1"
       d="m 203.73134,50.932836 c 2.98508,0 2.98508,0 0,0 z"
       id="path5738"
       inkscape:connector-curvature="0" />
    <path
       style="fill:#dcdcdc;stroke:#000000;stroke-width:1px;stroke-linecap:butt;stroke-linejoin:miter;stroke-opacity:1"
       d="m 119.21642,67.164179 c -19.991643,21.63568 31.1195,7.779876 0,0 z"
       id="path5740"
       inkscape:connector-curvature="0" />
  </g>
  <g
     inkscape:groupmode="layer"
     id="layer108"
     inkscape:label="Head">
    <path
       style="fill:#ffe4e1;stroke:#000000;stroke-width:1px;stroke-linecap:butt;stroke-linejoin:miter;stroke-opacity:1"
       d="M 70.762712,53.813559 C 57.060269,59.350101 47.612219,64.521325 40.254237,79.237288 33.83745,92.070862 41.744796,116.32107 50,124.57627 c 3.729954,3.72996 31.270419,9.06837 36.016949,5.50848 2.931032,-2.19828 7.266486,-4.72412 9.745763,-7.20339 14.387748,-14.38775 3.536313,-54.090809 -7.20339,-64.830513 -0.976786,-0.976786 -3.906634,0.165328 -6.779661,-1.271186 -4.03605,-2.018025 -5.4151,-7.447581 -11.016949,-2.966102 z"
       id="path5583"
       inkscape:connector-curvature="0" />
  </g>
  <g
     inkscape:groupmode="layer"
     id="layer26"
     inkscape:label="hair"
     style="display:inline">
    <path
       style="fill:#8b4513;stroke:#000000;stroke-width:1px;stroke-linecap:butt;stroke-linejoin:miter;stroke-opacity:1"
       d="M 80.597015,64.925373 C 72.47794,63.295265 73.203722,74.498885 64.365672,78.91791 59.214648,81.493422 37.598783,83.494306 36.940299,82.835821 31.092696,76.988218 53.680697,59.379004 58.208955,54.850746 c 7.414165,-7.414164 16.460036,-5.762519 22.38806,-2.798507 3.000344,1.500172 1.314936,12.873134 0,12.873134 -4.612232,0 1.710901,-10.085225 3.358209,-10.634328 6.414894,-2.138298 8.412601,5.614094 11.19403,8.395522 0.543148,0.543149 2.445075,4.065074 1.119403,6.716418 -2.982413,5.964825 -9.131953,-4.477612 -15.671642,-4.477612 z"
       id="path5744"
       inkscape:connector-curvature="0" />
  </g>
  <g
     inkscape:groupmode="layer"
     id="layer107"
     inkscape:label="Face">
    <path
       style="fill:#f5f5f5;stroke:#000000;stroke-width:1px;stroke-linecap:butt;stroke-linejoin:miter;stroke-opacity:1"
       d="m 69.067797,88.983051 c -6.432352,-0.792241 -4.963756,1.573924 -7.627119,4.237288 -7.218707,7.218711 23.6597,15.803441 7.627119,-4.237288 z"
       id="path5568"
       inkscape:connector-curvature="0" />
    <path
       style="fill:#f5f5f5;stroke:#000000;stroke-width:1px;stroke-linecap:butt;stroke-linejoin:miter;stroke-opacity:1"
       d="m 90.254237,87.711864 c -23.912597,-0.0535 1.694916,23.372526 1.694916,8.474577 0,-3.367242 0.482053,-5.753366 -1.694916,-8.474577 z"
       id="path5570"
       inkscape:connector-curvature="0" />
    <path
       style="fill:none;stroke:#000000;stroke-width:1px;stroke-linecap:butt;stroke-linejoin:miter;stroke-opacity:1"
       d="m 70.338983,118.22034 c 27.661041,13.12243 15.951112,-12.76089 0,0 z"
       id="path5572"
       inkscape:connector-curvature="0" />
    <path
       style="fill:none;stroke:#000000;stroke-width:1px;stroke-linecap:butt;stroke-linejoin:miter;stroke-opacity:1"
       d="m 76.271186,96.186441 c 0.726296,4.178499 -2.590909,12.711869 -3.813559,12.711869 -3.52588,0 11.45573,2.51226 12.288136,0.84745 0.977185,-1.95437 -7.617876,-13.387979 -8.474577,-13.559319 z"
       id="path5574"
       inkscape:connector-curvature="0" />
    <path
       style="fill:none;stroke:#000000;stroke-width:1px;stroke-linecap:butt;stroke-linejoin:miter;stroke-opacity:1"
       d="M 66.525424,95.338983 67.79661,94.491525"
       id="path5576"
       inkscape:connector-curvature="0" />
    <path
       style="fill:none;stroke:#000000;stroke-width:1px;stroke-linecap:butt;stroke-linejoin:miter;stroke-opacity:1"
       d="m 86.864407,94.067797 0.847457,1.271186"
       id="path5578"
       inkscape:connector-curvature="0" />
  </g>
</svg>
