<?xml version="1.0" encoding="UTF-8" standalone="no"?>
<!-- Created with Inkscape (http://www.inkscape.org/) -->

<svg
   xmlns:dc="http://purl.org/dc/elements/1.1/"
   xmlns:cc="http://creativecommons.org/ns#"
   xmlns:rdf="http://www.w3.org/1999/02/22-rdf-syntax-ns#"
   xmlns:svg="http://www.w3.org/2000/svg"
   xmlns="http://www.w3.org/2000/svg"
   xmlns:sodipodi="http://sodipodi.sourceforge.net/DTD/sodipodi-0.dtd"
   xmlns:inkscape="http://www.inkscape.org/namespaces/inkscape"
   width="300"
   height="300"
   id="svg2"
   version="1.1"
   inkscape:version="0.48.0 r9654"
   sodipodi:docname="Page8.svg">
  <defs
     id="defs4" />
  <sodipodi:namedview
     id="base"
     pagecolor="#ffffff"
     bordercolor="#666666"
     borderopacity="1.0"
     inkscape:pageopacity="0.0"
     inkscape:pageshadow="2"
     inkscape:zoom="1.7866667"
     inkscape:cx="82.276122"
     inkscape:cy="150"
     inkscape:document-units="px"
     inkscape:current-layer="layer19"
     showgrid="false"
     fit-margin-top="0"
     fit-margin-left="0"
     fit-margin-right="0"
     fit-margin-bottom="0"
     gridtolerance="5"
     inkscape:window-width="1153"
     inkscape:window-height="756"
     inkscape:window-x="37"
     inkscape:window-y="22"
     inkscape:window-maximized="0" />
  <metadata
     id="metadata7">
    <rdf:RDF>
      <cc:Work
         rdf:about="">
        <dc:format>image/svg+xml</dc:format>
        <dc:type
           rdf:resource="http://purl.org/dc/dcmitype/StillImage" />
        <dc:title />
      </cc:Work>
    </rdf:RDF>
  </metadata>
  <g
     inkscape:groupmode="layer"
     id="layer19"
     inkscape:label="bg">
    <path
       style="fill:#fffacd;stroke:#000000;stroke-width:1px;stroke-linecap:butt;stroke-linejoin:miter;stroke-opacity:1"
       d="m 12.313433,19.589552 c 0.483196,-5.944484 5.082446,-7.291163 10.074627,-8.955224 21.696677,-7.2322254 52.962312,-0.559701 75.559701,-0.559701 47.266409,0 94.475179,-1.6791046 141.604479,-1.6791046 8.6656,0 46.59249,-4.7627854 49.81343,1.6791046 8.75321,17.50641 0,135.485803 0,161.753733 0,4.4485 -0.61808,110.87928 -4.47761,114.7388 -9.11349,9.11349 -110.95165,5.14717 -127.05224,3.35821 C 145.88374,288.59736 22.028377,290.12539 16.791045,284.88806 6.7316141,274.82863 16.090736,228.77458 12.873134,212.68657 8.4809423,190.72561 11.998181,167.31199 9.5149254,144.96269 4.8273384,102.7744 4.5044419,58.634507 12.313433,19.589552 z"
       id="path7018"
       inkscape:connector-curvature="0" />
  </g>
  <g
     inkscape:groupmode="layer"
     id="layer99"
     inkscape:label="feet">
    <path
       style="fill:#8b4513;stroke:#000000;stroke-width:1px;stroke-linecap:butt;stroke-linejoin:miter;stroke-opacity:1"
       d="m 123.30508,247.45763 c -0.35247,9.08677 -12.58804,7.95798 -19.49152,13.13559 -5.061326,3.79599 22.16051,4.95814 26.27119,0.84746 5.96719,-5.9672 7.1936,-17.54042 -4.23729,-15.25424"
       id="path4203"
       inkscape:connector-curvature="0" />
    <path
       style="fill:#8b4513;stroke:#000000;stroke-width:1px;stroke-linecap:butt;stroke-linejoin:miter;stroke-opacity:1"
       d="m 154.23729,245.76271 c -11.9974,9.17775 22.8699,23.76319 25.84746,14.83051 0.0834,-0.25035 -21.69901,-16.60842 -28.81356,-13.55932"
       id="path4205"
       inkscape:connector-curvature="0" />
  </g>
  <g
     inkscape:groupmode="layer"
     id="layer100"
     inkscape:label="hands">
    <path
       style="fill:#ffe4e1;stroke:#000000;stroke-width:1px;stroke-linecap:butt;stroke-linejoin:miter;stroke-opacity:1"
       d="m 77.542373,191.10169 c -4.830606,4.08939 -9.247073,25.34877 1.271186,14.83051 1.56008,-1.56008 2.096877,5.61985 4.237288,5.08475 2.413207,-0.6033 5.423324,-13.72962 4.237289,-16.1017 -1.84927,-3.69854 -9.745763,-5.80045 -9.745763,-0.42372"
       id="path4208"
       inkscape:connector-curvature="0" />
    <path
       style="fill:#ffe4e1;stroke:#000000;stroke-width:1px;stroke-linecap:butt;stroke-linejoin:miter;stroke-opacity:1"
       d="m 199.57627,201.69492 c -2.81967,3.31759 0.82852,16.53489 6.77966,13.55932 1.47867,-0.73934 0.0417,-4.66102 1.69492,-4.66102 0.86273,0 1.01816,7.11804 3.38983,5.9322 6.36644,-3.18322 0.4737,-10.96697 -1.69492,-13.13559 -2.42792,-2.42793 -5.1492,-3.36405 -7.20339,-2.54237"
       id="path4210"
       inkscape:connector-curvature="0" />
  </g>
  <g
     inkscape:groupmode="layer"
     id="layer98"
     inkscape:label="legs">
    <path
       style="fill:#b8860b;stroke:#000000;stroke-width:1px;stroke-linecap:butt;stroke-linejoin:miter;stroke-opacity:1"
       d="m 116.94915,205.08475 c -0.29797,7.48062 0.66409,40.91833 4.66102,44.91525 1.10555,1.10555 14.83051,-1.77347 14.83051,-0.42373 0,2.99289 2.01967,-5.63528 2.9661,-8.47458 1.11182,-3.33547 4.66102,-6.66149 4.66102,-10.16949 0,-1.16472 0.84745,-4.55455 0.84745,-3.38983 0,5.55047 0.71332,20.76271 3.38983,20.76271 5.24975,0 12.54482,2.59806 17.79661,0.84746 0.65667,-0.21889 7.20339,-0.76238 7.20339,-0.42373 0,3.15829 -1.30317,-6.18813 -1.69491,-9.32203 -1.01619,-8.12952 -5.08475,-16.91299 -5.08475,-25 0,-3.17854 -2.19725,-13.98305 -2.9661,-13.98305 -16.26253,0 -30.54511,-1.6766 -44.06779,5.08474"
       id="path4200"
       inkscape:connector-curvature="0" />
  </g>
  <g
     inkscape:groupmode="layer"
     id="layer97"
     inkscape:label="Top">
    <path
       style="fill:#ff0000;stroke:#000000;stroke-width:1px;stroke-linecap:butt;stroke-linejoin:miter;stroke-opacity:1"
       d="m 113.55932,114.83051 c -29.127306,5.72629 -28.308719,28.99396 -35.593218,50.84746 -1.421189,4.26356 0.369229,10.27849 -1.694916,14.40678 -1.232834,2.46566 -3.883789,13.91282 -2.966101,14.8305 1.080114,1.08012 5.952451,-0.84745 6.779661,-0.84745 0.726147,0 9.649318,2.63881 10.59322,1.69491 4.043075,-4.04307 5.767928,-17.30378 7.627119,-22.88135 0.317431,-0.9523 4.631895,-11.46981 6.779665,-9.32204 8.95239,8.9524 -0.77056,21.64938 -2.54238,30.50848 -0.36327,1.81638 -3.620479,14.40678 -2.966099,14.40678 18.143459,0 38.752589,0.16824 58.050849,-0.84746 6.22497,-0.32763 12.45638,-0.84746 18.64407,-0.84746 2.54629,0 10.17341,0.42373 7.62712,0.42373 -0.91799,0 0.15925,-2.01342 0.84745,-3.38983 1.32872,-2.65743 -0.8154,-8.08643 -1.27118,-10.59322 -1.11047,-6.10754 -7.76766,-22.88242 -5.50848,-26.27119 5.61073,-8.41608 17.40269,34.35184 19.91526,36.86441 0.36185,0.36186 14.388,-1.67614 14.8305,-2.11864 0.65744,-0.65744 -1.33964,-6.73895 -1.69491,-7.62712 -1.95116,-4.87791 -1.28543,-11.07392 -2.54237,-16.1017 -1.72774,-6.91093 -6.83214,-12.49805 -8.47458,-19.06779 -6.96035,-27.84142 -19.86709,-34.54914 -45.76271,-45.33899 -5.1104,-2.12933 -23.65767,-7.66269 -29.66102,-4.66101 -3.87737,1.93868 -6.26436,4.98168 -11.01695,5.9322 z"
       id="path4197"
       inkscape:connector-curvature="0" />
  </g>
  <g
     inkscape:groupmode="layer"
     id="layer96"
     inkscape:label="head">
    <path
       style="fill:#ffe4e1;stroke:#000000;stroke-width:1px;stroke-linecap:butt;stroke-linejoin:miter;stroke-opacity:1"
       d="m 139.83051,50.423729 c -46.73865,-6.537281 -53.006183,71.869991 -7.62712,77.542371 3.65948,0.45744 13.11856,2.12716 16.52542,0.42373 5.01607,-2.50803 10.96489,-3.69757 16.1017,-6.77966 6.27575,-3.76545 9.67354,-24.585843 8.47457,-31.779662 -1.24023,-7.441408 -6.58595,-13.305084 -8.47457,-19.915254 -1.69394,-5.928787 -8.91379,-15.51157 -13.98305,-16.525423 -3.84418,-0.768836 -10.91589,-2.966102 -11.01695,-2.966102 z"
       id="path4192"
       inkscape:connector-curvature="0" />
  </g>
  <g
     inkscape:groupmode="layer"
     id="layer101"
     inkscape:label="face">
    <path
       style="fill:#f5f5f5;stroke:#000000;stroke-width:1px;stroke-linecap:butt;stroke-linejoin:miter;stroke-opacity:1"
       d="m 136.01695,91.101695 c -5.10842,-7.715039 -17.08876,2.826491 -10.16949,9.745765 2.37652,2.37652 6.79864,2.09334 9.32203,-1.271189 4.21228,-5.616365 0.52558,-8.957389 0.84746,-8.474576 z"
       id="path4213"
       inkscape:connector-curvature="0" />
    <path
       style="fill:#f5f5f5;stroke:#000000;stroke-width:1px;stroke-linecap:butt;stroke-linejoin:miter;stroke-opacity:1"
       d="m 152.9661,91.101695 c -3.85354,-0.223884 -5.50847,0.769974 -5.50847,4.237288 0,12.318787 17.30661,5.201227 5.50847,-4.237288 z"
       id="path4215"
       inkscape:connector-curvature="0" />
    <path
       style="fill:none;stroke:#000000;stroke-width:1px;stroke-linecap:butt;stroke-linejoin:miter;stroke-opacity:1"
       d="m 139.83051,99.576271 c -12.52224,25.932529 17.36479,10.418869 0,0 z"
       id="path4217"
       inkscape:connector-curvature="0" />
    <path
       style="fill:none;stroke:#000000;stroke-width:1px;stroke-linecap:butt;stroke-linejoin:miter;stroke-opacity:1"
       d="m 128.81356,120.33898 c 2.23977,2.05988 19.6261,-3.75973 23.72881,-2.11864"
       id="path4219"
       inkscape:connector-curvature="0" />
    <path
       style="fill:none;stroke:#000000;stroke-width:1px;stroke-linecap:butt;stroke-linejoin:miter;stroke-opacity:1"
       d="m 131.35593,94.491525 -0.42373,0"
       id="path4221"
       inkscape:connector-curvature="0" />
    <path
       style="fill:none;stroke:#000000;stroke-width:1px;stroke-linecap:butt;stroke-linejoin:miter;stroke-opacity:1"
       d="m 151.69492,94.915254 0.42372,0.847458"
       id="path4223"
       inkscape:connector-curvature="0" />
  </g>
  <g
     inkscape:groupmode="layer"
     id="layer102"
     inkscape:label="hair">
    <path
       style="fill:none;stroke:#000000;stroke-width:1px;stroke-linecap:butt;stroke-linejoin:miter;stroke-opacity:1"
       d="m 97.881356,91.949153 c -3.709171,-3.984602 -0.0791,-9.489644 5.508474,-7.627119 4.90726,1.635755 6.13275,8.258938 10.59322,9.745763 6.31412,2.104706 10.99808,-6.134631 15.67797,-8.474577 11.77203,-5.886018 6.78696,12.704565 16.94915,2.542373 1.88056,-1.880558 11.01695,-0.466437 11.01695,1.271187 0,3.369169 5.4611,-4.001736 8.47457,-5.508475 5.71804,-2.859016 9.42918,1.582931 8.89831,4.237288"
       id="path4226"
       inkscape:connector-curvature="0" />
    <path
       style="fill:none;stroke:#000000;stroke-width:1px;stroke-linecap:butt;stroke-linejoin:miter;stroke-opacity:1"
       d="m 119.0678,93.220339 c 4.32329,24.717141 18.56746,13.518631 21.61017,-1.694915"
       id="path4228"
       inkscape:connector-curvature="0" />
    <path
       style="fill:none;stroke:#000000;stroke-width:1px;stroke-linecap:butt;stroke-linejoin:miter;stroke-opacity:1"
       d="m 145.33898,89.40678 c -11.79825,25.21146 34.16945,11.15252 13.55933,0.847457"
       id="path4230"
       inkscape:connector-curvature="0" />
    <path
       style="fill:#f5f5f5;stroke:#000000;stroke-width:1px;stroke-linecap:butt;stroke-linejoin:miter;stroke-opacity:1"
       d="m 100,71.186441 c 5.68994,-3.933436 10.85855,-11.851539 14.83051,-14.830509 4.20997,-3.15748 6.9356,-5.798311 11.44068,-8.050847 5.1149,-2.557452 25.44715,3.342984 23.30508,7.627118 -1.92662,3.853242 -18.87997,1.710941 -23.30508,4.661017 C 120.94397,64.144699 102.15753,81.974092 100,71.186441 z"
       id="path4232"
       inkscape:connector-curvature="0" />
    <path
       style="fill:#f5f5f5;stroke:#000000;stroke-width:1px;stroke-linecap:butt;stroke-linejoin:miter;stroke-opacity:1"
       d="m 167.79661,69.491525 c -0.24161,-6.71553 -13.02796,-21.717801 -18.64407,-16.101694 -3.21571,3.215713 5.70027,15.0223 9.74577,19.067796 8.36949,8.36949 8.17185,-2.820812 8.8983,-2.966102 0.70621,-0.141243 0.28249,1.41243 0,0 z"
       id="path4234"
       inkscape:connector-curvature="0" />
  </g>
  <g
     inkscape:groupmode="layer"
     id="layer103"
     inkscape:label="Stick">
    <path
       style="fill:#a0522d;stroke:#000000;stroke-width:1px;stroke-linecap:butt;stroke-linejoin:miter;stroke-opacity:1"
       d="m 219.0678,216.10169 c 0.15477,-1.47877 -4.33113,-5.50847 -6.77966,-5.50847 -12.64151,0 -5.946,30.12612 -8.89831,38.98305 -0.3021,0.90629 -2.31018,13.13559 -1.27119,13.13559 0.33188,0 4.41057,-0.17328 4.66102,-0.42372 0.98793,-0.98794 2.54237,-31.79173 2.54237,-36.44068 0,-2.32896 -0.83901,-8.05929 0.84746,-9.74577 0.67432,-0.67432 9.45363,0 8.89831,0 z"
       id="path4237"
       inkscape:connector-curvature="0" />
  </g>
  <g
     inkscape:groupmode="layer"
     id="layer5"
     inkscape:label="Layer">
    <path
       style="fill:#dcdcdc;stroke:#000000;stroke-width:1px;stroke-linecap:butt;stroke-linejoin:miter;stroke-opacity:1"
       d="m 230.03731,24.626866 c -8.47438,-3.374267 -6.70629,2.78838 -10.07462,6.156716 -0.42677,0.426764 -1.63313,-1.119403 -2.23881,-1.119403 -2.82654,0 -4.33193,0.64915 -6.71642,2.238806 -1.98553,1.323686 -4.73462,4.16578 -6.15671,6.156716 -2.86366,4.009121 2.01419,7.725335 1.1194,9.514926 -2.4957,4.991393 -5.64998,12.740726 -3.35821,18.470149 2.61901,6.54753 15.10112,1.097766 17.35075,5.597015 0.10124,0.202478 -1.58787,6.755889 -1.11941,8.395522 0.8778,3.072281 14.07446,7.942758 16.79105,8.395523 1.01502,0.16917 21.17546,-1.026209 23.50746,-3.358209 3.75198,-3.751976 11.26488,-6.255901 13.99254,-10.074627 1.92089,-2.689255 6.94543,-9.871284 7.83582,-13.432836 0.30477,-1.219102 -0.8763,-5.280417 0,-6.156716 0.74595,-0.745952 2.39975,-0.643772 2.79851,-2.238806 0.76055,-3.042219 -2.9215,-1.802098 -3.91791,-2.798508 -0.49647,-0.496467 2.1865,-4.723492 2.2388,-5.037313 0.47799,-2.867898 -0.4186,-6.993913 -1.6791,-9.514925 -1.93153,-3.863051 -9.35926,-5.285682 -10.63433,-7.835821 -1.53479,-3.069571 -0.46397,-5.203755 -3.91791,-7.27612 -1.5555,-0.933299 -18.55214,-8.395522 -19.58955,-8.395522 -7.26961,0 -17.07562,7.247779 -16.23135,12.313433 z"
       id="path4658"
       inkscape:connector-curvature="0" />
    <path
       style="fill:none;stroke:#000000;stroke-width:1px;stroke-linecap:butt;stroke-linejoin:miter;stroke-opacity:1"
       d="m 228.35821,44.776119 c 3.54505,-6.26172 23.50746,-15.322334 23.50746,-2.798507 0,1.808945 -0.97073,7.127453 -2.2388,8.395522 -6.7568,6.7568 -12.31344,-1.974331 -12.31344,11.19403"
       id="path4660"
       inkscape:connector-curvature="0" />
    <path
       style="fill:none;stroke:#000000;stroke-width:1px;stroke-linecap:butt;stroke-linejoin:miter;stroke-opacity:1"
       d="m 238.99254,70.522388 c -6.02938,-1.878478 -5.82534,4.0836 -1.67911,6.156716 1.17996,0.589978 5.23714,0.559702 3.91791,0.559702 -0.76923,0 0.5597,-3.008042 0.5597,-2.238806 0,1.760071 -1.74246,-3.069555 -2.7985,-4.477612 z"
       id="path4662"
       inkscape:connector-curvature="0" />
    <path
       style="fill:#dcdcdc;stroke:#000000;stroke-width:1px;stroke-linecap:butt;stroke-linejoin:miter;stroke-opacity:1"
       d="m 199.81343,77.238806 c -3.0939,-0.567292 -6.15671,2.730683 -6.15671,5.597015 0,13.160573 15.83151,-5.597015 6.15671,-5.597015 z"
       id="path4664"
       inkscape:connector-curvature="0" />
    <path
       style="fill:#dcdcdc;stroke:#000000;stroke-width:1px;stroke-linecap:butt;stroke-linejoin:miter;stroke-opacity:1"
       d="m 177.42537,72.201493 c -1.22081,-0.499991 -2.7985,1.479278 -2.7985,2.798507 0,12.246332 17.99308,-2.798507 2.7985,-2.798507 z"
       id="path4668"
       inkscape:connector-curvature="0" />
  </g>
</svg>
