<?xml version="1.0" encoding="UTF-8" standalone="no"?>
<!-- Created with Inkscape (http://www.inkscape.org/) -->

<svg
   xmlns:dc="http://purl.org/dc/elements/1.1/"
   xmlns:cc="http://creativecommons.org/ns#"
   xmlns:rdf="http://www.w3.org/1999/02/22-rdf-syntax-ns#"
   xmlns:svg="http://www.w3.org/2000/svg"
   xmlns="http://www.w3.org/2000/svg"
   xmlns:sodipodi="http://sodipodi.sourceforge.net/DTD/sodipodi-0.dtd"
   xmlns:inkscape="http://www.inkscape.org/namespaces/inkscape"
   width="300"
   height="300"
   id="svg2"
   version="1.1"
   inkscape:version="0.48.0 r9654"
   sodipodi:docname="Page9.svg">
  <defs
     id="defs4" />
  <sodipodi:namedview
     id="base"
     pagecolor="#ffffff"
     bordercolor="#666666"
     borderopacity="1.0"
     inkscape:pageopacity="0.0"
     inkscape:pageshadow="2"
     inkscape:zoom="1.7866667"
     inkscape:cx="82.276119"
     inkscape:cy="144.68284"
     inkscape:document-units="px"
     inkscape:current-layer="layer20"
     showgrid="false"
     fit-margin-top="0"
     fit-margin-left="0"
     fit-margin-right="0"
     fit-margin-bottom="0"
     gridtolerance="5"
     inkscape:window-width="1179"
     inkscape:window-height="756"
     inkscape:window-x="37"
     inkscape:window-y="22"
     inkscape:window-maximized="0" />
  <metadata
     id="metadata7">
    <rdf:RDF>
      <cc:Work
         rdf:about="">
        <dc:format>image/svg+xml</dc:format>
        <dc:type
           rdf:resource="http://purl.org/dc/dcmitype/StillImage" />
        <dc:title />
      </cc:Work>
    </rdf:RDF>
  </metadata>
  <g
     inkscape:groupmode="layer"
     id="layer20"
     inkscape:label="bg">
    <path
       style="fill:#b3defd;stroke:#000000;stroke-width:1px;stroke-linecap:butt;stroke-linejoin:miter;stroke-opacity:1"
       d="M 0,191.41791 C 16.489418,151.22789 -10.719732,39.264508 17.910448,10.634328 25.031068,3.5137084 54.220133,7.8358209 64.365672,7.8358209 c 20.609274,0 114.349348,4.7940001 127.052238,0.5597015 18.27419,-6.0913972 42.22755,-5.0373134 68.84328,-5.0373134 4.88955,0 27.22133,-1.8831485 30.22388,1.1194029 2.27224,2.2722369 0.31231,20.7738641 2.79851,25.7462691 14.42157,28.84314 -14.49748,122.684149 2.79851,157.276119 3.95902,7.91804 3.4977,13.71297 -4.47761,19.02985 -12.10889,8.07259 -48.82745,0.97998 -61.56717,0 -9.62417,-0.74032 -19.63223,1.61448 -29.10447,2.79851 -20.6468,2.58085 -42.59298,-1.1194 -63.24627,-1.1194 -31.87126,0 -120.665317,11.5777 -137.68657,-16.79105 z"
       id="path7178"
       inkscape:connector-curvature="0" />
  </g>
  <g
     inkscape:groupmode="layer"
     id="layer6"
     inkscape:label="Layer">
    <path
       style="fill:#bdb76b;stroke:#000000;stroke-width:1px;stroke-linecap:butt;stroke-linejoin:miter;stroke-opacity:1"
       d="m 0,191.73913 c 8.3623904,6.58111 19.492487,1.87194 29.130435,3.47826 6.402808,1.06714 9.707248,5.33276 15.652174,6.52174 11.062531,2.21251 23.793035,-2.25638 35.217391,-1.30435 11.32415,0.94368 24.76106,2.77982 35.65217,-1.30435 13.25041,-4.9689 23.90528,-9.83337 38.69566,-8.69565 11.49503,0.88424 21.4642,8.23972 33.04347,9.13044 18.06525,1.38963 36.30026,-1.30435 54.34783,-1.30435 21.28348,0 22.58473,-2.25693 44.78261,-0.86957 1.55276,0.097 5.59707,1.76669 7.3913,0.86957 1.78109,-0.89054 5.65218,-0.88935 5.65218,-0.86957 0,19.89855 -6.42099,61.70738 -2.6087,76.95653 0.80017,3.20069 5.19884,22.62724 2.17391,25.65217 -1.28877,1.28877 -61.40143,0 -71.73913,0 -38.57814,0 -76.88699,-2.07653 -115.21739,-7.82609 C 102.46112,290.71699 60.283728,287.00687 51.304348,290 45.605755,291.89953 20.645292,293.96567 16.956522,293.04348 14.530321,292.43693 1.769511,294.37821 0,292.6087 c -2.2791315,-2.27914 -0.43478261,-15.53975 -0.43478261,-18.26087 0,-14.14472 8.29781951,-73.17306 0.43478261,-82.6087 z"
       id="path4810"
       inkscape:connector-curvature="0" />
  </g>
  <g
     inkscape:groupmode="layer"
     id="layer104"
     inkscape:label="Stone">
    <path
       style="fill:#d3d3d3;stroke:#000000;stroke-width:1px;stroke-linecap:butt;stroke-linejoin:miter;stroke-opacity:1"
       d="m 64.40678,251.69492 c 0.196913,-15.26353 0.839054,-30.58411 -0.847458,-45.76272 -2.4402,-21.9618 -13.449819,-46.84346 -9.745763,-69.06779 9.28161,-55.689664 25.672921,-98.728817 86.016951,-98.728817 10.28771,0 38.73002,-3.219126 46.61017,4.661017 7.03285,7.032851 16.40392,15.616441 20.76271,25.423729 8.15091,18.339549 7.43378,61.411701 5.9322,80.932201 -0.68018,8.84244 -2.18902,20.83455 -0.42373,29.66102 1.19498,5.97485 9.15391,69.40406 6.77967,74.15254 -0.39678,0.79356 -18.40619,0.84746 -19.91526,0.84746 -30.32876,0 -61.48378,7.62173 -91.94915,3.81356 -11.074488,-1.38431 -46.716462,-0.10534 -43.22034,-5.9322 z"
       id="path4259"
       inkscape:connector-curvature="0" />
  </g>
  <g
     inkscape:groupmode="layer"
     id="layer105"
     inkscape:label="Grass">
    <path
       style="fill:#808000;stroke:#000000;stroke-width:1px;stroke-linecap:butt;stroke-linejoin:miter;stroke-opacity:1"
       d="m 200.42373,259.74576 c 1.14264,0.85572 0.98116,-27.8324 1.69491,-27.11864 3.18074,3.18074 5.62495,11.33724 7.20339,15.67796 0.64399,1.77097 1.27119,7.3929 1.27119,5.50848 0,-3.69989 0.42373,-7.34309 0.42373,-11.01695 0,-0.50701 1.36759,-14.40678 1.69491,-14.40678 1.40651,0 1.04444,15.25424 1.69492,15.25424 0.53486,0 4.38953,-14.71126 5.08475,-16.1017 1.24422,-2.48844 3.38983,-10.40928 3.38983,-7.62712 0,7.35264 -0.42373,14.76034 -0.42373,22.0339 0,3.04902 1.02411,-6.05252 2.11864,-8.8983 0.33271,-0.86504 15.2945,-28.34957 17.79661,-25.84746 2.46152,2.46151 -4.06183,18.73839 -4.66102,22.0339 -3.10184,17.06016 5.35648,0.56927 19.49153,-5.08475 0.58648,-0.23459 1.69492,-1.47911 1.69492,-0.84746 0,3.22052 -10.02939,10.71551 -12.28814,13.1356 -3.78245,4.05262 -7.71835,7.80958 -10.16949,12.71186 -0.49246,0.98492 6.04567,-0.8575 3.81356,2.11865 -10.20629,13.60838 -27.18704,3.41718 -39.83051,8.47457 z"
       id="path4262"
       inkscape:connector-curvature="0" />
    <path
       style="fill:#808000;stroke:#000000;stroke-width:1px;stroke-linecap:butt;stroke-linejoin:miter;stroke-opacity:1"
       d="m 83.898305,260.16949 c -13.260258,-14.50072 -21.218711,-34.90711 -25,-53.81356 -0.115944,-0.57972 -1.271186,1.1704 -1.271186,1.69492 0,6.75364 -0.847458,13.5085 -0.847458,20.33898 0,0.29722 -0.144027,3.52968 -0.423729,3.38983 -2.381622,-1.19081 -3.461148,-4.60108 -5.508474,-6.35593 -19.464532,-16.68389 6.115439,18.46083 3.813559,20.76271 -3.284742,3.28474 -20.728855,-15.71182 -23.305085,-13.13559 -0.367856,0.36785 17.974645,13.38128 14.830509,16.52542 -0.289163,0.28916 -12.040888,-2.47161 -10.169492,1.27119 7.324224,14.64845 36.310345,4.69363 47.881356,9.32203 z"
       id="path4264"
       inkscape:connector-curvature="0" />
    <path
       style="fill:#ffff00;stroke:#000000;stroke-width:1px;stroke-linecap:butt;stroke-linejoin:miter;stroke-opacity:1"
       d="m 268.64407,16.101695 c -6.62092,-4.386747 -14.55682,-2.583588 -20.33899,1.271186 -12.55279,8.368529 -6.69871,38.959924 11.01695,33.898305 9.70636,-2.773245 21.26777,-33.178536 6.77966,-35.59322"
       id="path4266"
       inkscape:connector-curvature="0" />
    <path
       style="fill:none;stroke:#000000;stroke-width:1px;stroke-linecap:butt;stroke-linejoin:miter;stroke-opacity:1"
       d="M 212.71186,14.830508 C 221.01129,18.483974 230.14923,21.006818 238.13559,25"
       id="path4268"
       inkscape:connector-curvature="0" />
    <path
       style="fill:none;stroke:#000000;stroke-width:1px;stroke-linecap:butt;stroke-linejoin:miter;stroke-opacity:1"
       d="m 211.01695,35.169492 c 6.81479,-0.548755 13.59731,-1.155549 20.33898,-2.118645"
       id="path4270"
       inkscape:connector-curvature="0" />
    <path
       style="fill:none;stroke:#000000;stroke-width:1px;stroke-linecap:butt;stroke-linejoin:miter;stroke-opacity:1"
       d="m 239.83051,41.949153 c -5.61985,4.384051 -12.79768,6.046626 -16.52543,11.016949"
       id="path4272"
       inkscape:connector-curvature="0" />
    <path
       style="fill:none;stroke:#000000;stroke-width:1px;stroke-linecap:butt;stroke-linejoin:miter;stroke-opacity:1"
       d="m 246.61017,51.271186 c -7.59155,9.126084 -16.1017,26.672457 -16.1017,36.864407"
       id="path4274"
       inkscape:connector-curvature="0" />
    <path
       style="fill:none;stroke:#000000;stroke-width:1px;stroke-linecap:butt;stroke-linejoin:miter;stroke-opacity:1"
       d="m 258.47458,56.355932 c 0.89471,6.159912 1.28721,17.876757 2.11864,22.033899"
       id="path4276"
       inkscape:connector-curvature="0" />
    <path
       style="fill:none;stroke:#000000;stroke-width:1px;stroke-linecap:butt;stroke-linejoin:miter;stroke-opacity:1"
       d="m 270.76271,45.762712 c 2.35446,2.739756 7.11347,7.492234 8.05085,8.898305"
       id="path4278"
       inkscape:connector-curvature="0" />
    <path
       style="fill:none;stroke:#000000;stroke-width:1px;stroke-linecap:butt;stroke-linejoin:miter;stroke-opacity:1"
       d="m 276.27119,26.271186 c 2.94705,0.339002 5.76462,0.367869 8.47457,1.271187"
       id="path4280"
       inkscape:connector-curvature="0" />
    <path
       style="fill:none;stroke:#000000;stroke-width:1px;stroke-linecap:butt;stroke-linejoin:miter;stroke-opacity:1"
       d="m 238.13559,3.3898305 c 2.55009,1.0448248 4.20751,3.340193 5.50848,5.5084746"
       id="path4282"
       inkscape:connector-curvature="0" />
  </g>
  <g
     inkscape:groupmode="layer"
     id="layer106"
     inkscape:label="Words">
    <path
       style="fill:none;stroke:#000000;stroke-width:1px;stroke-linecap:butt;stroke-linejoin:miter;stroke-opacity:1"
       d="m 85.169492,88.983051 c 0.85565,24.048519 -3.456397,-6.177351 6.355932,-1.271187 3.519189,1.759595 6.419796,14.290716 4.237288,11.01695 -5.282436,-7.923655 4.815578,-16.447276 10.593218,-2.966102"
       id="path4285"
       inkscape:connector-curvature="0" />
    <path
       style="fill:none;stroke:#000000;stroke-width:1px;stroke-linecap:butt;stroke-linejoin:miter;stroke-opacity:1"
       d="m 113.98305,89.40678 c 11.32958,29.57212 -10.48503,-8.201534 15.25424,-0.847458"
       id="path4287"
       inkscape:connector-curvature="0" />
    <path
       style="fill:none;stroke:#000000;stroke-width:1px;stroke-linecap:butt;stroke-linejoin:miter;stroke-opacity:1"
       d="m 75.423729,121.18644 c -0.281965,6.44765 2.118644,12.68386 2.118644,19.0678"
       id="path4289"
       inkscape:connector-curvature="0" />
    <path
       style="fill:none;stroke:#000000;stroke-width:1px;stroke-linecap:butt;stroke-linejoin:miter;stroke-opacity:1"
       d="m 81.355932,124.57627 c 0.452689,3.12673 1.145454,6.20842 1.694915,9.32204 6.398275,36.25688 -6.672197,-18.53661 6.779661,-5.08475 2.233247,2.23325 3.36964,5.43781 4.237289,8.47458"
       id="path4291"
       inkscape:connector-curvature="0" />
    <path
       style="fill:none;stroke:#000000;stroke-width:1px;stroke-linecap:butt;stroke-linejoin:miter;stroke-opacity:1"
       d="m 98.305085,113.13559 c 1.821265,9.11717 3.000875,25.12604 13.983055,26.69492"
       id="path4293"
       inkscape:connector-curvature="0" />
    <path
       style="fill:none;stroke:#000000;stroke-width:1px;stroke-linecap:butt;stroke-linejoin:miter;stroke-opacity:1"
       d="m 95.762712,121.61017 c 3.850973,0.25269 7.606278,-0.42373 11.440678,-0.42373"
       id="path4295"
       inkscape:connector-curvature="0" />
    <path
       style="fill:none;stroke:#000000;stroke-width:1px;stroke-linecap:butt;stroke-linejoin:miter;stroke-opacity:1"
       d="m 118.64407,138.55932 c 20.8745,-8.28686 -11.65663,-18.43629 4.23729,-2.54237 2.2145,2.2145 6.98448,2.24717 9.74576,1.69491"
       id="path4297"
       inkscape:connector-curvature="0" />
    <path
       style="fill:none;stroke:#000000;stroke-width:1px;stroke-linecap:butt;stroke-linejoin:miter;stroke-opacity:1"
       d="m 135.59322,111.44068 c 0.69117,9.12859 -1.05541,23.55291 10.16949,25.42373"
       id="path4299"
       inkscape:connector-curvature="0" />
    <path
       style="fill:none;stroke:#000000;stroke-width:1px;stroke-linecap:butt;stroke-linejoin:miter;stroke-opacity:1"
       d="m 156.35593,123.72881 c 0.39119,3.79692 -1.59029,11.90626 2.54238,13.55933 4.37084,1.74833 7.86325,-12.28814 8.47457,-12.28814 1.13874,0 0.0636,2.30953 0.42373,3.38983 4.61921,13.85762 7.48573,26.13002 -8.8983,34.32203"
       id="path4301"
       inkscape:connector-curvature="0" />
    <path
       style="fill:none;stroke:#000000;stroke-width:1px;stroke-linecap:butt;stroke-linejoin:miter;stroke-opacity:1"
       d="m 95.338983,175 c 12.730207,-4.10541 25.580937,-9.34168 38.983047,-11.01695"
       id="path4303"
       inkscape:connector-curvature="0" />
    <path
       style="fill:none;stroke:#000000;stroke-width:1px;stroke-linecap:butt;stroke-linejoin:miter;stroke-opacity:1"
       d="m 116.52542,169.49153 c 0.32048,4.35095 4.51107,23.83832 -4.23728,20.33898"
       id="path4305"
       inkscape:connector-curvature="0" />
    <path
       style="fill:none;stroke:#000000;stroke-width:1px;stroke-linecap:butt;stroke-linejoin:miter;stroke-opacity:1"
       d="m 136.86441,179.23729 c -3.5728,-1.8007 -4.22211,-0.0152 -6.77966,2.54237 -7.68312,7.68311 21.1394,11.39364 8.8983,-0.84746"
       id="path4307"
       inkscape:connector-curvature="0" />
    <path
       style="fill:none;stroke:#000000;stroke-width:1px;stroke-linecap:butt;stroke-linejoin:miter;stroke-opacity:1"
       d="m 147.0339,178.38983 c -0.78408,3.01225 0.52894,6.35305 1.27118,9.32203 3.3511,13.4044 -2.8101,-6.62893 -1.27118,-9.32203 2.85714,-4.99999 10.74544,4.96546 11.44068,6.35593"
       id="path4309"
       inkscape:connector-curvature="0" />
    <path
       style="fill:none;stroke:#000000;stroke-width:1px;stroke-linecap:butt;stroke-linejoin:miter;stroke-opacity:1"
       d="m 168.22034,163.55932 c -0.82194,8.81652 -0.52056,20.86682 10.59322,18.64407"
       id="path4311"
       inkscape:connector-curvature="0" />
    <path
       style="fill:none;stroke:#000000;stroke-width:1px;stroke-linecap:butt;stroke-linejoin:miter;stroke-opacity:1"
       d="m 157.20339,170.76271 c 7.91117,0.26984 16.10737,-0.84746 24.15254,-0.84746"
       id="path4313"
       inkscape:connector-curvature="0" />
    <path
       style="fill:none;stroke:#000000;stroke-width:1px;stroke-linecap:butt;stroke-linejoin:miter;stroke-opacity:1"
       d="m 94.491525,214.40678 c -1.304176,5.92791 -0.100188,12.36535 -1.271186,18.22034"
       id="path4315"
       inkscape:connector-curvature="0" />
    <path
       style="fill:none;stroke:#000000;stroke-width:1px;stroke-linecap:butt;stroke-linejoin:miter;stroke-opacity:1"
       d="m 122.0339,214.83051 c -7.32656,-13.11764 -12.25115,14.38828 -1.27119,8.8983 2.15842,-1.0792 1.27119,-6.99635 1.27119,-8.8983 0,-2.40113 0,4.80226 0,7.20339 0,5.65008 -1.27119,11.024 -1.27119,16.52542"
       id="path4317"
       inkscape:connector-curvature="0" />
    <path
       style="fill:none;stroke:#000000;stroke-width:1px;stroke-linecap:butt;stroke-linejoin:miter;stroke-opacity:1"
       d="M 148.72881,213.13559 C 132.09752,209.46627 150,229.70599 150,215.67797 c 0,-0.8632 0.0727,-2.54238 -1.27119,-2.54238 -3.54235,0 0.84746,7.05087 0.84746,10.59322 0,5.51483 -2.11864,10.56699 -2.11864,15.67797"
       id="path4319"
       inkscape:connector-curvature="0" />
    <path
       style="fill:none;stroke:#000000;stroke-width:1px;stroke-linecap:butt;stroke-linejoin:miter;stroke-opacity:1"
       d="m 176.69492,215.67797 c -20.08159,-5.83927 -0.0786,13.33205 -0.84746,15.25423 -1.67272,4.1818 -15.02821,7.17507 -12.71187,2.54238 3.79271,-7.58541 10.82666,-9.59863 13.55933,-17.79661 z"
       id="path4321"
       inkscape:connector-curvature="0" />
  </g>
</svg>
